<?xml version="1.0" encoding="utf-8"?>
<!-- Generator: Adobe Illustrator 23.1.0, SVG Export Plug-In . SVG Version: 6.00 Build 0)  -->
<svg version="1.1" id="Layer_1" xmlns="http://www.w3.org/2000/svg" xmlns:xlink="http://www.w3.org/1999/xlink"
	 viewBox="0 0 623 293" style="enable-background:new 0 0 623 293;" xml:space="preserve">
<style type="text/css">
	.st0{fill:none;stroke:#333333;stroke-width:7;stroke-miterlimit:10;}
	.st1{fill:#0071BC;}
	.st2{fill:#333333;}
</style>
<path class="st0" d="M528.11,214.67c-3.99,11.21-14.7,19.24-27.28,19.24H173.67c-13.37,0-24.63-9.07-27.95-21.4"/>
<g>
	<path class="st1" d="M80.86,165.82v12.76c0,1.7-0.17,3.05-0.5,4.06c-0.33,1.01-0.95,1.93-1.84,2.75c-0.89,0.82-2.04,1.6-3.43,2.36
		c-4.03,2.18-7.9,3.77-11.63,4.77s-7.78,1.5-12.17,1.5c-5.12,0-9.78-0.79-13.99-2.36c-4.21-1.57-7.8-3.86-10.76-6.86
		c-2.97-3-5.24-6.63-6.83-10.9c-1.59-4.27-2.38-9.04-2.38-14.3c0-5.18,0.77-9.92,2.32-14.21s3.81-7.95,6.81-10.94
		c3-3,6.65-5.29,10.94-6.88c4.3-1.59,9.17-2.38,14.62-2.38c4.48,0,8.45,0.6,11.9,1.79c3.45,1.2,6.25,2.7,8.4,4.52
		c2.15,1.82,3.77,3.74,4.86,5.77s1.63,3.83,1.63,5.4c0,1.7-0.63,3.14-1.88,4.34s-2.76,1.79-4.52,1.79c-0.97,0-1.9-0.23-2.79-0.68
		c-0.89-0.45-1.64-1.09-2.25-1.91c-1.67-2.6-3.07-4.57-4.22-5.9c-1.15-1.33-2.7-2.45-4.65-3.36c-1.95-0.91-4.44-1.36-7.47-1.36
		c-3.12,0-5.9,0.54-8.36,1.61s-4.55,2.63-6.29,4.68c-1.74,2.04-3.07,4.55-4,7.52c-0.92,2.97-1.39,6.25-1.39,9.85
		c0,7.81,1.79,13.82,5.38,18.03c3.59,4.21,8.59,6.31,15.01,6.31c3.12,0,6.05-0.41,8.79-1.23c2.74-0.82,5.52-1.98,8.33-3.5v-10.81
		H58.06c-2.51,0-4.41-0.38-5.7-1.13c-1.29-0.76-1.93-2.04-1.93-3.86c0-1.48,0.54-2.71,1.61-3.68s2.54-1.45,4.38-1.45h15.3
		c1.88,0,3.47,0.17,4.77,0.5c1.3,0.33,2.35,1.08,3.16,2.23S80.86,163.51,80.86,165.82z"/>
	<path class="st1" d="M139.26,168.81c0,3.69-0.58,7.1-1.73,10.22c-1.15,3.12-2.82,5.8-5,8.04s-4.78,3.96-7.81,5.15
		c-3.03,1.2-6.43,1.79-10.22,1.79c-3.75,0-7.13-0.61-10.13-1.82c-3-1.21-5.59-2.94-7.79-5.2c-2.2-2.25-3.86-4.92-5-7.99
		c-1.14-3.07-1.7-6.47-1.7-10.19c0-3.75,0.57-7.19,1.73-10.31c1.15-3.12,2.8-5.78,4.95-7.99c2.15-2.21,4.75-3.91,7.81-5.11
		c3.06-1.2,6.43-1.79,10.13-1.79c3.75,0,7.16,0.61,10.22,1.82c3.06,1.21,5.68,2.94,7.86,5.18c2.18,2.24,3.84,4.9,4.97,7.99
		C138.69,161.68,139.26,165.09,139.26,168.81z M126.81,168.81c0-5.06-1.11-8.99-3.34-11.81c-2.23-2.82-5.22-4.22-8.97-4.22
		c-2.42,0-4.56,0.63-6.4,1.88c-1.85,1.26-3.27,3.11-4.27,5.56c-1,2.45-1.5,5.31-1.5,8.58c0,3.24,0.49,6.07,1.48,8.49
		c0.98,2.42,2.39,4.28,4.22,5.56c1.83,1.29,3.99,1.93,6.47,1.93c3.75,0,6.74-1.42,8.97-4.25
		C125.7,177.72,126.81,173.81,126.81,168.81z"/>
	<path class="st1" d="M188.93,177.8c0,3.42-0.83,6.35-2.5,8.79c-1.67,2.44-4.13,4.28-7.38,5.54s-7.21,1.88-11.87,1.88
		c-4.45,0-8.26-0.68-11.44-2.04s-5.52-3.07-7.04-5.11c-1.51-2.04-2.27-4.09-2.27-6.15c0-1.36,0.48-2.53,1.45-3.5
		c0.97-0.97,2.19-1.45,3.68-1.45c1.3,0,2.3,0.32,3,0.95c0.7,0.64,1.36,1.53,2,2.68c1.27,2.21,2.79,3.86,4.56,4.95
		c1.77,1.09,4.18,1.63,7.24,1.63c2.48,0,4.52-0.55,6.11-1.66c1.59-1.11,2.38-2.37,2.38-3.79c0-2.18-0.83-3.77-2.47-4.77
		c-1.65-1-4.37-1.95-8.15-2.86c-4.27-1.06-7.74-2.17-10.42-3.34c-2.68-1.17-4.82-2.7-6.43-4.61c-1.6-1.91-2.41-4.25-2.41-7.04
		c0-2.48,0.74-4.83,2.23-7.04c1.48-2.21,3.67-3.97,6.56-5.29c2.89-1.32,6.38-1.97,10.47-1.97c3.21,0,6.09,0.33,8.65,1
		c2.56,0.67,4.69,1.56,6.4,2.68c1.71,1.12,3.01,2.36,3.91,3.72c0.89,1.36,1.34,2.69,1.34,4c0,1.42-0.48,2.59-1.43,3.5
		c-0.95,0.91-2.31,1.36-4.06,1.36c-1.27,0-2.35-0.36-3.25-1.09s-1.91-1.82-3.06-3.27c-0.94-1.21-2.04-2.18-3.31-2.91
		s-3-1.09-5.18-1.09c-2.24,0-4.1,0.48-5.59,1.43c-1.48,0.95-2.23,2.14-2.23,3.57c0,1.3,0.54,2.37,1.63,3.2s2.56,1.52,4.4,2.07
		c1.85,0.54,4.39,1.21,7.63,2c3.84,0.94,6.99,2.06,9.42,3.36c2.44,1.3,4.28,2.84,5.54,4.61
		C188.31,173.51,188.93,175.53,188.93,177.8z"/>
	<path class="st2" d="M219.42,129.49v2.24c3.26-4.3,6.82-7.45,10.69-9.47c3.87-2.01,8.31-3.02,13.34-3.02
		c4.89,0,9.25,1.06,13.1,3.19c3.85,2.13,6.72,5.14,8.62,9.03c1.22,2.26,2.01,4.71,2.38,7.33c0.36,2.63,0.54,5.97,0.54,10.04v34.48
		c0,3.71-0.85,6.52-2.54,8.42s-3.9,2.85-6.62,2.85c-2.76,0-5-0.97-6.72-2.92c-1.72-1.95-2.58-4.73-2.58-8.35v-30.88
		c0-6.11-0.85-10.78-2.54-14.02c-1.7-3.23-5.08-4.85-10.15-4.85c-3.3,0-6.31,0.98-9.03,2.95c-2.71,1.97-4.71,4.67-5.97,8.11
		c-0.91,2.76-1.36,7.92-1.36,15.47v23.21c0,3.76-0.87,6.57-2.61,8.45c-1.74,1.88-3.99,2.82-6.75,2.82c-2.67,0-4.86-0.97-6.58-2.92
		c-1.72-1.95-2.58-4.73-2.58-8.35v-53.55c0-3.53,0.77-6.17,2.31-7.91c1.54-1.74,3.64-2.61,6.31-2.61c1.63,0,3.1,0.39,4.41,1.15
		c1.31,0.77,2.36,1.92,3.16,3.46C219.03,125.39,219.42,127.27,219.42,129.49z"/>
	<path class="st2" d="M355.91,156.91c0,5.52-0.86,10.61-2.58,15.27c-1.72,4.66-4.21,8.67-7.47,12.01c-3.26,3.35-7.15,5.92-11.67,7.7
		s-9.62,2.68-15.27,2.68c-5.61,0-10.66-0.91-15.14-2.71c-4.48-1.81-8.36-4.4-11.64-7.77c-3.28-3.37-5.77-7.35-7.47-11.95
		c-1.7-4.59-2.54-9.67-2.54-15.24c0-5.61,0.86-10.75,2.58-15.41c1.72-4.66,4.18-8.64,7.4-11.95c3.21-3.3,7.1-5.85,11.67-7.63
		c4.57-1.79,9.62-2.68,15.14-2.68c5.61,0,10.7,0.91,15.27,2.71c4.57,1.81,8.48,4.39,11.74,7.74s5.74,7.33,7.43,11.95
		C355.06,146.25,355.91,151.34,355.91,156.91z M337.32,156.91c0-7.56-1.66-13.44-4.99-17.65c-3.33-4.21-7.79-6.31-13.4-6.31
		c-3.62,0-6.81,0.94-9.57,2.82c-2.76,1.88-4.89,4.65-6.38,8.31c-1.49,3.66-2.24,7.94-2.24,12.83c0,4.84,0.74,9.07,2.21,12.69
		c1.47,3.62,3.57,6.39,6.31,8.31c2.74,1.92,5.96,2.88,9.67,2.88c5.61,0,10.08-2.11,13.4-6.35
		C335.65,170.22,337.32,164.37,337.32,156.91z"/>
	<path class="st2" d="M432.13,158.27v24.64c0,3.89-0.88,6.81-2.65,8.75s-4.1,2.92-6.99,2.92c-2.81,0-5.08-0.97-6.82-2.92
		c-1.74-1.95-2.61-4.86-2.61-8.75v-29.52c0-4.66-0.16-8.28-0.47-10.86c-0.32-2.58-1.18-4.69-2.58-6.35
		c-1.4-1.65-3.62-2.48-6.65-2.48c-6.06,0-10.06,2.08-11.98,6.24c-1.92,4.16-2.88,10.14-2.88,17.92v25.04c0,3.85-0.87,6.75-2.61,8.72
		c-1.74,1.97-4.04,2.95-6.89,2.95c-2.81,0-5.1-0.98-6.89-2.95c-1.79-1.97-2.68-4.88-2.68-8.72V129.9c0-3.48,0.8-6.13,2.41-7.94
		c1.61-1.81,3.72-2.71,6.35-2.71c2.53,0,4.65,0.85,6.35,2.55c1.7,1.7,2.55,4.04,2.55,7.02v1.76c3.21-3.85,6.65-6.67,10.32-8.48
		c3.66-1.81,7.74-2.71,12.22-2.71c4.66,0,8.66,0.93,12.01,2.78c3.35,1.86,6.11,4.66,8.28,8.42c3.12-3.8,6.47-6.62,10.04-8.45
		c3.57-1.83,7.53-2.75,11.88-2.75c5.07,0,9.43,1,13.1,2.99s6.4,4.84,8.21,8.55c1.58,3.35,2.38,8.62,2.38,15.81v36.18
		c0,3.89-0.88,6.81-2.65,8.75c-1.77,1.95-4.1,2.92-6.99,2.92c-2.81,0-5.1-0.98-6.89-2.95c-1.79-1.97-2.68-4.88-2.68-8.72v-31.15
		c0-3.98-0.17-7.17-0.51-9.57c-0.34-2.4-1.26-4.41-2.75-6.04c-1.49-1.63-3.76-2.44-6.79-2.44c-2.44,0-4.76,0.72-6.96,2.17
		c-2.2,1.45-3.9,3.39-5.13,5.84C432.81,144.83,432.13,150.35,432.13,158.27z"/>
	<path class="st1" d="M492.98,194.01c-1.88,0-3.5-0.61-4.86-1.82c-1.36-1.21-2.04-2.91-2.04-5.09c0-1.85,0.65-3.44,1.95-4.77
		s2.91-2,4.81-2c1.91,0,3.53,0.66,4.88,1.98c1.35,1.32,2.02,2.91,2.02,4.79c0,2.15-0.67,3.84-2.02,5.06
		C496.38,193.4,494.79,194.01,492.98,194.01z"/>
	<path class="st1" d="M526.17,176.12v10.35c0,2.51-0.59,4.4-1.77,5.65c-1.18,1.26-2.68,1.88-4.5,1.88c-1.79,0-3.25-0.63-4.41-1.91
		s-1.72-3.15-1.72-5.63v-34.51c0-5.57,2.01-8.36,6.04-8.36c2.06,0,3.54,0.65,4.45,1.95s1.41,3.22,1.5,5.77
		c1.48-2.54,3-4.46,4.56-5.77c1.56-1.3,3.64-1.95,6.24-1.95s5.13,0.65,7.58,1.95s3.68,3.03,3.68,5.18c0,1.51-0.52,2.76-1.57,3.75
		c-1.04,0.98-2.17,1.48-3.38,1.48c-0.45,0-1.55-0.28-3.29-0.84c-1.74-0.56-3.28-0.84-4.61-0.84c-1.82,0-3.3,0.48-4.45,1.43
		c-1.15,0.95-2.04,2.37-2.68,4.25c-0.63,1.88-1.07,4.11-1.32,6.7C526.29,169.24,526.17,172.4,526.17,176.12z"/>
	<path class="st1" d="M584.48,187.02v-1.59c-1.48,1.88-3.04,3.45-4.68,4.72s-3.42,2.22-5.36,2.84s-4.15,0.93-6.63,0.93
		c-3,0-5.68-0.62-8.06-1.86c-2.38-1.24-4.22-2.95-5.52-5.13c-1.54-2.63-2.32-6.42-2.32-11.35v-24.57c0-2.48,0.56-4.34,1.68-5.56
		c1.12-1.23,2.6-1.84,4.45-1.84c1.88,0,3.39,0.62,4.54,1.86s1.73,3.09,1.73,5.54v19.84c0,2.88,0.24,5.29,0.73,7.24
		c0.48,1.95,1.35,3.48,2.61,4.59c1.26,1.11,2.96,1.66,5.11,1.66c2.09,0,4.06-0.62,5.9-1.86s3.19-2.86,4.04-4.86
		c0.7-1.76,1.04-5.6,1.04-11.53v-15.08c0-2.45,0.58-4.3,1.73-5.54s2.65-1.86,4.5-1.86c1.85,0,3.33,0.61,4.45,1.84
		c1.12,1.23,1.68,3.08,1.68,5.56v35.92c0,2.36-0.54,4.13-1.61,5.31s-2.46,1.77-4.15,1.77c-1.7,0-3.1-0.61-4.2-1.84
		C585.03,190.95,584.48,189.23,584.48,187.02z"/>
</g>
<path class="st0" d="M495.22,68.53h12.61c15.99,0,28.94,12.96,28.94,28.94v31.2"/>
<line class="st0" x1="246.78" y1="68.53" x2="500" y2="68.52"/>
<path class="st0" d="M151.73,129.11V97.47c0-15.99,12.96-28.94,28.94-28.94L253,68.5"/>
<g>
	<g>
		<path class="st1" d="M106.64,114.54c1.81-3.97,3.55-7.8,5.29-11.64c0.25-0.54,0.41-1.14,0.76-1.6c0.33-0.43,0.87-1,1.3-0.98
			c0.49,0.02,1.16,0.52,1.39,0.98c1.24,2.54,2.37,5.14,3.54,7.72c0.82,1.8,1.64,3.59,2.5,5.48c0.26-0.18,0.48-0.31,0.66-0.46
			c2.4-2.05,4.81-4.11,7.2-6.17c0.63-0.54,1.26-1.03,2.11-0.46c0.78,0.53,0.65,1.25,0.44,2.03c-1.74,6.52-3.54,13.03-5.14,19.58
			c-0.39,1.59-0.17,3.33-0.19,5.01c-0.03,1.84-0.36,2.19-2.19,2.19c-6.88,0-13.77,0-20.65,0c-1.69,0-2.21-0.41-2.05-2.1
			c0.44-4.64-1.22-8.89-2.32-13.24c-0.98-3.86-2.02-7.7-3.07-11.55c-0.21-0.77-0.25-1.44,0.47-1.94c0.74-0.51,1.36-0.17,1.95,0.34
			c2.42,2.08,4.85,4.15,7.28,6.23C106.12,114.14,106.33,114.3,106.64,114.54z M104.03,127.87c6.7,0,13.34,0,20.03,0
			c1.34-5.04,2.68-10.05,4.09-15.34c-1.97,1.69-3.71,3.19-5.46,4.68c-1.82,1.55-2.44,1.42-3.42-0.73
			c-1.59-3.51-3.18-7.02-4.77-10.53c-0.12-0.25-0.26-0.5-0.46-0.87c-0.21,0.42-0.36,0.69-0.49,0.98c-1.52,3.36-3.04,6.72-4.57,10.08
			c-1.19,2.62-1.66,2.71-3.81,0.85c-1.66-1.44-3.34-2.87-5.22-4.48C101.35,117.81,102.68,122.82,104.03,127.87z M104.4,133.38
			c6.49,0,12.88,0,19.27,0c0-0.91,0-1.76,0-2.64c-6.44,0-12.83,0-19.27,0C104.4,131.64,104.4,132.48,104.4,133.38z"/>
	</g>
</g>
</svg>
