<svg width="12" height="9" viewBox="0 0 12 9" fill="none" xmlns="http://www.w3.org/2000/svg">
<path d="M10.499 0.200684C10.7041 0.200684 10.8945 0.237305 11.0703 0.310547C11.2461 0.383789 11.4023 0.48877 11.5391 0.625488C11.6758 0.762207 11.7783 0.916016 11.8467 1.08691C11.915 1.25781 11.9541 1.45068 11.9639 1.66553C11.9639 1.86084 11.9272 2.04883 11.854 2.22949C11.7808 2.41016 11.6758 2.56885 11.5391 2.70557L5.72363 8.52832C5.58691 8.66504 5.42822 8.77002 5.24756 8.84326C5.06689 8.9165 4.87891 8.95557 4.68359 8.96045C4.48828 8.96045 4.30029 8.92383 4.11963 8.85059C3.93896 8.77734 3.78027 8.66992 3.64355 8.52832L0.992188 5.87695C0.855469 5.74023 0.750488 5.58154 0.677246 5.40088C0.604004 5.22021 0.564941 5.03223 0.560059 4.83691C0.560059 4.63184 0.599121 4.44141 0.677246 4.26562C0.755371 4.08984 0.860352 3.93359 0.992188 3.79688C1.12402 3.66016 1.27783 3.55762 1.45361 3.48926C1.62939 3.4209 1.82227 3.38184 2.03223 3.37207C2.22754 3.37207 2.41553 3.40869 2.59619 3.48193C2.77686 3.55518 2.93555 3.66016 3.07227 3.79688L4.68359 5.4082L9.45898 0.625488C9.5957 0.48877 9.75439 0.383789 9.93506 0.310547C10.1157 0.237305 10.3037 0.200684 10.499 0.200684Z" fill="#5284C7"/>
</svg>
