<svg width="20" height="20" viewBox="0 0 20 20" fill="none" xmlns="http://www.w3.org/2000/svg">
<path d="M13.2227 11.3965L17.5 6.25002V18.75H2.50002V6.25002L6.84572 11.3867L10 6.25002L13.2227 11.3965ZM3.75002 3.75002C3.75002 3.9258 3.71747 4.08856 3.65236 4.2383C3.58726 4.38804 3.49937 4.51825 3.38869 4.62893C3.27802 4.7396 3.14455 4.83075 2.9883 4.90236C2.83205 4.97398 2.66929 5.00653 2.50002 5.00002C2.32424 5.00002 2.16148 4.96747 2.01174 4.90236C1.862 4.83726 1.73179 4.74937 1.62111 4.63869C1.51044 4.52802 1.41929 4.39455 1.34768 4.2383C1.27606 4.08205 1.24351 3.91929 1.25002 3.75002C1.25002 3.57424 1.28257 3.41148 1.34768 3.26174C1.41278 3.112 1.50067 2.98179 1.61135 2.87111C1.72203 2.76044 1.85549 2.66929 2.01174 2.59768C2.16799 2.52606 2.33075 2.49351 2.50002 2.50002C2.6758 2.50002 2.83856 2.53257 2.9883 2.59768C3.13804 2.66278 3.26825 2.75067 3.37893 2.86135C3.4896 2.97203 3.58075 3.10549 3.65236 3.26174C3.72398 3.41799 3.75653 3.58075 3.75002 3.75002ZM10 5.00002C9.82424 5.00002 9.66148 4.96747 9.51174 4.90236C9.362 4.83726 9.23179 4.74937 9.12112 4.63869C9.01044 4.52802 8.91929 4.39455 8.84768 4.2383C8.77606 4.08205 8.74351 3.91929 8.75002 3.75002C8.75002 3.57424 8.78257 3.41148 8.84768 3.26174C8.91278 3.112 9.00067 2.98179 9.11135 2.87111C9.22203 2.76044 9.35549 2.66929 9.51174 2.59768C9.66799 2.52606 9.83075 2.49351 10 2.50002C10.1758 2.50002 10.3386 2.53257 10.4883 2.59768C10.638 2.66278 10.7683 2.75067 10.8789 2.86135C10.9896 2.97203 11.0808 3.10549 11.1524 3.26174C11.224 3.41799 11.2565 3.58075 11.25 3.75002C11.25 3.9258 11.2175 4.08856 11.1524 4.2383C11.0873 4.38804 10.9994 4.51825 10.8887 4.62893C10.778 4.7396 10.6446 4.83075 10.4883 4.90236C10.3321 4.97398 10.1693 5.00653 10 5.00002ZM17.5 2.50002C17.6758 2.50002 17.8386 2.53257 17.9883 2.59768C18.138 2.66278 18.2683 2.75067 18.3789 2.86135C18.4896 2.97203 18.5808 3.10549 18.6524 3.26174C18.724 3.41799 18.7565 3.58075 18.75 3.75002C18.75 3.9258 18.7175 4.08856 18.6524 4.2383C18.5873 4.38804 18.4994 4.51825 18.3887 4.62893C18.278 4.7396 18.1446 4.83075 17.9883 4.90236C17.8321 4.97398 17.6693 5.00653 17.5 5.00002C17.3242 5.00002 17.1615 4.96747 17.0117 4.90236C16.862 4.83726 16.7318 4.74937 16.6211 4.63869C16.5104 4.52802 16.4193 4.39455 16.3477 4.2383C16.2761 4.08205 16.2435 3.91929 16.25 3.75002C16.25 3.57424 16.2826 3.41148 16.3477 3.26174C16.4128 3.112 16.5007 2.98179 16.6114 2.87111C16.722 2.76044 16.8555 2.66929 17.0117 2.59768C17.168 2.52606 17.3308 2.49351 17.5 2.50002Z" fill="#FFB800"/>
</svg>
