<svg width="25" height="25" viewBox="0 0 25 25" fill="none" xmlns="http://www.w3.org/2000/svg">
<path d="M17.9688 7.8125C17.7572 7.8125 17.5741 7.73519 17.4194 7.58057C17.2648 7.42594 17.1875 7.24284 17.1875 7.03125C17.1875 6.81966 17.2648 6.63656 17.4194 6.48193C17.5741 6.32731 17.7572 6.25 17.9688 6.25C18.1803 6.25 18.3634 6.32731 18.5181 6.48193C18.6727 6.63656 18.75 6.81966 18.75 7.03125C18.75 7.24284 18.6727 7.42594 18.5181 7.58057C18.3634 7.73519 18.1803 7.8125 17.9688 7.8125ZM25 6.25V21.875H3.125V18.75H0V3.125H21.875V6.25H25ZM19.2017 17.1875L14.8438 12.8174L12.8174 14.8438L15.1733 17.1875H19.2017ZM1.5625 4.6875V11.3892L5.46875 7.49512L11.7188 13.7451L14.8438 10.6201L20.3125 16.0767V4.6875H1.5625ZM12.9517 17.1875L5.46875 9.69238L1.5625 13.6108V17.1875H12.9517ZM23.4375 7.8125H21.875V18.75H4.6875V20.3125H23.4375V7.8125Z" fill="#5284C7"/>
</svg>
