<!-- Generated by IcoMoon.io -->
<svg version="1.1" xmlns="http://www.w3.org/2000/svg" width="32" height="32" viewBox="0 0 32 32">
<title>ic_additional_feature02</title>
<path fill="#fff" d="M7.948 6.241c-0.139 0.1-0.213 0.263-0.192 0.428s0.132 0.307 0.293 0.372c0.16 0.065 0.345 0.044 0.485-0.056 0.104-0.074 0.172-0.184 0.19-0.306s-0.015-0.246-0.093-0.345c-0.162-0.206-0.468-0.247-0.683-0.093z"></path>
<path fill="#3dc75a" d="M7.948 10.8v1.861c0.001 0.452 0.233 0.876 0.62 1.137s0.884 0.326 1.332 0.175v3.805c0.003 0.549 0.344 1.045 0.87 1.268s1.141 0.131 1.57-0.235c0.429 0.366 1.044 0.458 1.57 0.235s0.867-0.719 0.87-1.268v-3.805c0.504 0.178 1.070 0.070 1.464-0.279 0.254 0.218 0.58 0.345 0.922 0.358l-0.517 0.986c-0.15 0.288-0.134 0.63 0.044 0.904s0.491 0.44 0.829 0.44h0.185v1.396c0.003 0.549 0.344 1.045 0.87 1.268s1.141 0.131 1.57-0.235c0.429 0.366 1.044 0.458 1.57 0.235s0.867-0.719 0.87-1.268v-1.396c0.405 0.049 0.803-0.133 1.015-0.465 0.177-0.273 0.194-0.615 0.044-0.903l-0.517-0.958c0.788-0.028 1.411-0.644 1.41-1.396v-1.861c0-1.285-1.092-2.326-2.44-2.326h-0.273c0.486-0.781 0.31-1.783-0.418-2.37s-1.794-0.587-2.521 0c-0.728 0.587-0.904 1.589-0.418 2.37h-0.273c-0.768 0-1.491 0.345-1.952 0.93-0.456-0.591-1.182-0.937-1.952-0.93h-0.273c0.486-0.781 0.31-1.783-0.418-2.37s-1.794-0.587-2.521 0c-0.728 0.587-0.904 1.589-0.418 2.37h-0.273c-0.647 0-1.268 0.245-1.725 0.681s-0.715 1.028-0.715 1.645zM19.172 18.243c-0.269 0-0.488-0.208-0.488-0.465v-1.396h0.976v1.396c0 0.257-0.218 0.465-0.488 0.465zM21.306 18.203c-0.182 0.070-0.391 0.029-0.529-0.104-0.092-0.083-0.144-0.2-0.141-0.321v-1.396h0.976v1.396c-0.003 0.187-0.123 0.355-0.305 0.425zM19.172 7.543c0-0.514 0.437-0.93 0.976-0.93s0.976 0.417 0.976 0.93c0 0.514-0.437 0.93-0.976 0.93s-0.976-0.417-0.976-0.93zM22.1 9.404c0.808 0 1.464 0.625 1.464 1.396v1.861c0 0.257-0.218 0.465-0.488 0.465s-0.488-0.208-0.488-0.465v-1.861c0-0.257-0.218-0.465-0.488-0.465s-0.488 0.208-0.488 0.465c0 2.363 0 2.396 0.049 2.521 0.010 0.026 0.004 0.019 0.001 0.014-0.001-0.001-0.002-0.002-0.002-0.002s0.008 0.016 0.046 0.089l0 0c0.091 0.172 0.352 0.663 1.068 2.029h-5.251c0.281-0.536 0.494-0.939 0.656-1.245h0c0.489-0.924 0.505-0.956 0.505-1.081v-2.326c0-0.257-0.218-0.465-0.488-0.465s-0.488 0.208-0.488 0.465v1.861c0 0.257-0.218 0.465-0.488 0.465s-0.488-0.208-0.488-0.465v-1.861c0-0.771 0.655-1.396 1.464-1.396h3.904zM15.756 10.8v1.861c0 0.257-0.219 0.465-0.488 0.465s-0.488-0.208-0.488-0.465v-1.861c0-0.257-0.219-0.465-0.488-0.465s-0.488 0.208-0.488 0.465v6.978c-0.003 0.187-0.123 0.355-0.305 0.425s-0.391 0.029-0.529-0.104c-0.092-0.083-0.144-0.2-0.141-0.321v-3.722c0-0.257-0.219-0.465-0.488-0.465s-0.488 0.208-0.488 0.465v3.722c0 0.257-0.219 0.465-0.488 0.465s-0.488-0.208-0.488-0.465v-6.978c0-0.257-0.219-0.465-0.488-0.465s-0.488 0.208-0.488 0.465v1.861c0 0.257-0.219 0.465-0.488 0.465s-0.488-0.208-0.488-0.465v-1.861c0-0.771 0.655-1.396 1.464-1.396h3.904c0.808 0 1.464 0.625 1.464 1.396zM12.34 6.613c0.539 0 0.976 0.417 0.976 0.93s-0.437 0.93-0.976 0.93c-0.539 0-0.976-0.417-0.976-0.93s0.437-0.93 0.976-0.93z"></path>
<path fill="#3dc75a" d="M12.828 26.152h-0.488c-0.269 0-0.488 0.208-0.488 0.465s0.219 0.465 0.488 0.465h0.488c0.269 0 0.488-0.208 0.488-0.465s-0.219-0.465-0.488-0.465z"></path>
<path fill="#fff" d="M27.897 15.522c0.243-0.547 0.806-0.903 1.43-0.902 0.529 0.001 1.021 0.257 1.307 0.681s0.327 0.958 0.108 1.417l-1.913 4.010c-0.427 0.884-0.781 1.219-2.661 2.995-0.395 0.374-0.858 0.811-1.404 1.331 0.168 0.172 0.263 0.398 0.264 0.633v1.861c0 0.514-0.437 0.93-0.976 0.93h-5.368c-0.539 0-0.976-0.417-0.976-0.93v-1.861c0-0.514 0.437-0.93 0.976-0.93 0-0.088-0.001-0.177-0.001-0.265-0.006-0.925-0.012-1.879 0.616-2.991h-6.11c0.623 1.097 0.62 1.972 0.616 3.003v0.001c-0 0.083-0.001 0.168-0.001 0.253 0.539 0 0.976 0.417 0.976 0.93v1.861c0 0.514-0.437 0.93-0.976 0.93h-5.368c-0.539 0-0.976-0.417-0.976-0.93v-1.861c0.001-0.235 0.095-0.461 0.263-0.633l-3.006-2.866c-0.715-0.682-0.921-1.119-2.009-3.435-0.263-0.559-0.577-1.228-0.962-2.036-0.281-0.493-0.246-1.096 0.091-1.556s0.917-0.701 1.5-0.621 1.068 0.467 1.254 1l1.059 2.326c0.11-0.067 0.226-0.125 0.346-0.172v-8.918c-0.387 0.276-0.687 0.493-0.923 0.663l-0 0c-0.73 0.526-0.837 0.603-0.952 0.615-0.020 0.002-0.040 0.002-0.063 0.002l-0.013-0c-0.21 0-0.397-0.128-0.463-0.318s0.002-0.399 0.17-0.519l2.635-1.861c0.216-0.154 0.521-0.112 0.683 0.093s0.118 0.497-0.098 0.651v9.411c0.489 0.008 0.962 0.172 1.342 0.465 1.511 1.216 2.256 1.505 2.824 1.726 0.456 0.177 0.799 0.31 1.333 0.842h7.544c0.548-0.539 0.89-0.672 1.342-0.847 0.563-0.218 1.298-0.504 2.816-1.721 0.382-0.291 0.853-0.454 1.342-0.465v-9.43c-1.957-1.399-3.531-2.527-4.786-3.426l-0.003-0.002-0.001-0.001-0-0c-3.785-2.712-4.685-3.357-4.535-3.158l-6.095 4.373c-0.216 0.154-0.521 0.112-0.683-0.093s-0.118-0.497 0.098-0.651l6.095-4.35c0.38-0.274 0.904-0.274 1.283 0l4.236 3.047v-0.93c0-0.514 0.437-0.93 0.976-0.93h2.44c0.539 0 0.976 0.417 0.976 0.93v4.047l3.221 2.303c0.168 0.12 0.237 0.329 0.17 0.519s-0.253 0.318-0.463 0.318c-0.18 0-0.222-0.030-1.010-0.601l-0-0c-0.238-0.172-0.544-0.394-0.942-0.678v8.886c0.121 0.045 0.239 0.1 0.351 0.163l1.054-2.326zM24.54 2.891h-2.44v1.605l2.44 1.745v-3.35zM13.804 27.547v-1.861h-5.368v1.861h5.368zM6.99 23.047c0.482 0.456 1.073 1.014 1.803 1.71h4.036c0-0.081 0.001-0.164 0.001-0.249v-0c0.008-0.934 0.017-2.044-0.865-3.119-0.464-0.551-0.779-0.674-1.256-0.859-0.582-0.226-1.405-0.546-3.033-1.853-0.463-0.351-1.118-0.351-1.581 0 0.307 0.425 0.533 0.639 1.68 1.728 0.31 0.294 0.687 0.652 1.151 1.096 0.097 0.086 0.152 0.207 0.154 0.333s-0.050 0.248-0.145 0.337c-0.19 0.18-0.498 0.18-0.688 0-0.413-0.394-0.767-0.726-1.073-1.014v0c-1.013-0.953-1.503-1.415-1.881-1.955-0.355-0.508-0.61-1.085-1.105-2.205l-0-0c-0.142-0.322-0.304-0.688-0.494-1.111-0.086-0.187-0.272-0.314-0.485-0.33s-0.419 0.080-0.535 0.251c-0.107 0.157-0.122 0.356-0.039 0.526l1.898 4.015c0.347 0.706 0.544 0.893 2.457 2.701zM24.052 27.547v-1.861h-5.368v1.861h5.368zM28.882 18.386c0.262-0.556 0.58-1.23 0.972-2.054 0.091-0.172 0.080-0.377-0.029-0.54-0.116-0.171-0.322-0.268-0.535-0.251s-0.4 0.143-0.485 0.33c-0.849 1.886-1.136 2.652-1.589 3.302-0.489 0.704-1.171 1.274-2.964 2.983-0.19 0.18-0.498 0.18-0.688 0-0.189-0.181-0.189-0.475 0-0.656 0.536-0.511 0.954-0.907 1.287-1.222 1.072-1.015 1.243-1.177 1.534-1.564-0.463-0.35-1.118-0.35-1.581 0-1.644 1.319-2.461 1.633-3.037 1.853-0.472 0.181-0.782 0.3-1.252 0.859-0.865 1.032-0.86 2.060-0.855 3.092 0 0.080 0.001 0.16 0.001 0.239h4.036l3.387-3.229c0.579-0.552 0.703-0.816 1.799-3.142z"></path>
<path fill="#3dc75a" d="M20.148 26.152h-0.488c-0.269 0-0.488 0.208-0.488 0.465s0.218 0.465 0.488 0.465h0.488c0.269 0 0.488-0.208 0.488-0.465s-0.218-0.465-0.488-0.465z"></path>
</svg>
