<!-- Generated by IcoMoon.io -->
<svg version="1.1" xmlns="http://www.w3.org/2000/svg" width="32" height="32" viewBox="0 0 32 32">
<title>ic_additional_feature03</title>
<path fill="#fff" d="M28.19 27.902h1.016v0.968h-28.444v-0.968h2.54v-6.295h-2.032c-0.205-0-0.391-0.118-0.469-0.299s-0.035-0.389 0.11-0.528l3.048-2.905c0.095-0.091 0.224-0.142 0.359-0.142h23.365c0.135 0 0.264 0.051 0.359 0.142l3.048 2.905c0.145 0.138 0.189 0.347 0.11 0.528s-0.264 0.299-0.469 0.299h-2.54v0.968h1.524v0.968h-1.524v4.358zM21.079 27.902h6.095v-4.358h-6.095v4.358zM9.905 20.154h1.016v7.748h6.603v-4.358h-2.032v-0.968h2.032v-0.968h-4.063c-0.135-0-0.264-0.051-0.359-0.142l-2.688-2.563-1.524 1.453v7.547h1.016v-7.748zM7.724 21.465c-0.095 0.091-0.224 0.142-0.359 0.142h-1.016v6.295h1.524v-6.579l-0.149 0.142zM20.063 21.607h-1.524v0.968h1.524v-0.968zM20.063 23.544h-1.524v4.358h1.524v-4.358zM27.175 22.576v-0.968h-6.095v0.968h6.095zM29.504 20.639l-2.032-1.937h-15.833l2.032 1.937h15.833zM4.528 18.702l-2.032 1.937h4.659l2.032-1.937h-4.659zM5.333 21.607h-1.016v6.295h1.016v-6.295z"></path>
<path fill="#fff" d="M13.945 22.576h0.047c0.267 0 0.484 0.217 0.484 0.484v0c0 0.267-0.217 0.484-0.484 0.484h-0.047c-0.267 0-0.484-0.217-0.484-0.484v0c0-0.267 0.217-0.484 0.484-0.484z"></path>
<path fill="#fff" d="M30.706 27.902h0.047c0.267 0 0.484 0.217 0.484 0.484v0c0 0.267-0.217 0.484-0.484 0.484h-0.047c-0.267 0-0.484-0.217-0.484-0.484v0c0-0.267 0.217-0.484 0.484-0.484z"></path>
<path fill="#fff" d="M4.501 11.729c0.387 0.372 0.963 0.501 1.484 0.334l1.051-0.334c0.191-0.061 0.4 0.012 0.506 0.175s0.080 0.374-0.062 0.51l-0.105 0.1c-0.17 0.161-0.444 0.161-0.614 0l-0.051-0.048-0.718 0.685 0.051 0.048c0.446 0.428 1.133 0.527 1.691 0.242l0.411 0.392 0.718-0.685-0.411-0.392c0.275-0.498 0.204-1.105-0.178-1.534s-1-0.592-1.56-0.412l-1.051 0.334c-0.191 0.061-0.4-0.012-0.506-0.175s-0.080-0.374 0.062-0.51l0.105-0.1c0.17-0.161 0.444-0.161 0.614 0l0.051 0.048 0.718-0.685-0.051-0.048c-0.448-0.424-1.133-0.522-1.691-0.242l-0.411-0.392-0.718 0.687 0.411 0.392c-0.292 0.532-0.189 1.184 0.254 1.611z"></path>
<path fill="#fff" d="M9.941 14.862c-1.453 1.385-3.637 1.799-5.535 1.050s-3.136-2.515-3.136-4.474c-0.004-1.285 0.532-2.518 1.488-3.424 1.281-1.232 3.156-1.717 4.915-1.27s3.132 1.756 3.601 3.433c0.468 1.677-0.040 3.464-1.332 4.685zM7.904 15.017c1.791-0.707 2.809-2.522 2.431-4.335s-2.047-3.118-3.985-3.118c-1.078-0.003-2.113 0.406-2.873 1.135-1.371 1.307-1.582 3.355-0.506 4.891s3.143 2.134 4.934 1.427z"></path>
<path fill="#fff" d="M27.955 9.041l-0.411 0.392c-0.522-0.262-1.159-0.195-1.609 0.17s-0.621 0.954-0.433 1.487l0.35 1.002c0.064 0.182-0.012 0.382-0.183 0.482s-0.392 0.076-0.535-0.059l-0.105-0.1c-0.169-0.162-0.169-0.423 0-0.585l0.051-0.048-0.718-0.685-0.051 0.048c-0.445 0.427-0.547 1.080-0.254 1.613l-0.411 0.392 0.718 0.685 0.411-0.392c0.522 0.262 1.159 0.195 1.609-0.17s0.621-0.954 0.433-1.487l-0.352-1.002c-0.064-0.182 0.012-0.382 0.183-0.482s0.393-0.076 0.535 0.059l0.105 0.1c0.169 0.162 0.169 0.423 0 0.585l-0.051 0.048 0.718 0.685 0.051-0.048c0.444-0.427 0.547-1.080 0.254-1.613l0.411-0.392-0.716-0.685z"></path>
<path fill="#fff" d="M21.177 10.494c0.473-2.266 2.559-3.898 4.982-3.898 1.348-0.004 2.641 0.507 3.592 1.418 1.713 1.634 1.978 4.193 0.632 6.114s-3.928 2.668-6.167 1.783c-2.239-0.884-3.511-3.153-3.038-5.418zM22.405 9.956c-0.742 1.707-0.115 3.677 1.497 4.703s3.76 0.825 5.131-0.482c0.764-0.725 1.193-1.711 1.19-2.739-0-1.848-1.37-3.439-3.271-3.799s-3.805 0.61-4.547 2.317z"></path>
<path fill="#3dc75a" d="M17.016 2.792v-0.554h-1.016v0.554c-0.563 0.167-0.964 0.644-1.011 1.205s0.268 1.093 0.796 1.343l0.99 0.472c0.181 0.085 0.276 0.278 0.229 0.465s-0.221 0.319-0.423 0.319h-0.148c-0.239-0-0.434-0.185-0.434-0.414v-0.071h-1.016v0.071c0.002 0.602 0.413 1.132 1.016 1.312v0.554h1.016v-0.554c0.564-0.167 0.964-0.644 1.011-1.205s-0.268-1.093-0.797-1.343l-0.99-0.472c-0.181-0.085-0.276-0.278-0.229-0.465s0.221-0.319 0.423-0.319h0.148c0.239 0 0.433 0.185 0.434 0.414v0.071h1.016v-0.071c-0.002-0.602-0.413-1.133-1.016-1.312z"></path>
<path fill="#3dc75a" d="M16.508 0.301c2.805 0 5.079 2.168 5.079 4.842-0.003 2.673-2.275 4.839-5.079 4.842-2.805 0-5.079-2.168-5.079-4.842s2.274-4.842 5.079-4.842zM12.444 5.143c0 2.139 1.819 3.874 4.064 3.874 2.243-0.002 4.061-1.735 4.063-3.874 0-2.139-1.819-3.874-4.063-3.874s-4.064 1.734-4.064 3.874z"></path>
<path fill="#3dc75a" d="M15.492 10.954h1.016v5.811h-1.016v-5.811z"></path>
<path fill="#3dc75a" d="M17.524 16.765h1.016v-1.937c0-0.535 0.455-0.968 1.016-0.968v-0.968c-1.122 0-2.032 0.867-2.032 1.937v1.937z"></path>
<path fill="#3dc75a" d="M14.476 16.765v-2.905c0-1.070-0.91-1.937-2.032-1.937v0.968c0.561 0 1.016 0.434 1.016 0.968v2.905h1.016z"></path>
<path fill="#3dc75a" d="M11.585 0.253c-1.403 1.274-2.195 3.043-2.188 4.891 0 0.175 0.007 0.349 0.021 0.521l1.013-0.075c-0.012-0.147-0.018-0.296-0.018-0.447-0.006-1.584 0.672-3.1 1.875-4.193l-0.703-0.698z"></path>
<path fill="#fff" d="M2.262 1.27h0.047c0.267 0 0.484 0.217 0.484 0.484s-0.217 0.484-0.484 0.484h-0.047c-0.267 0-0.484-0.217-0.484-0.484s0.217-0.484 0.484-0.484z"></path>
<path fill="#fff" d="M5.818 3.691h0.047c0.267 0 0.484 0.217 0.484 0.484v0c0 0.267-0.217 0.484-0.484 0.484h-0.047c-0.267 0-0.484-0.217-0.484-0.484v0c0-0.267 0.217-0.484 0.484-0.484z"></path>
<path fill="#fff" d="M1.754 16.765h0.047c0.267 0 0.484 0.217 0.484 0.484v0c0 0.267-0.217 0.484-0.484 0.484h-0.047c-0.267 0-0.484-0.217-0.484-0.484v0c0-0.267 0.217-0.484 0.484-0.484z"></path>
<path fill="#fff" d="M30.706 16.765h0.047c0.267 0 0.484 0.217 0.484 0.484v0c0 0.267-0.217 0.484-0.484 0.484h-0.047c-0.267 0-0.484-0.217-0.484-0.484v0c0-0.267 0.217-0.484 0.484-0.484z"></path>
<path fill="#fff" d="M23.595 0.785h0.047c0.267 0 0.484 0.217 0.484 0.484v0c0 0.267-0.217 0.484-0.484 0.484h-0.047c-0.267 0-0.484-0.217-0.484-0.484v0c0-0.267 0.217-0.484 0.484-0.484z"></path>
<path fill="#fff" d="M28.675 4.175h0.047c0.267 0 0.484 0.217 0.484 0.484v0c0 0.267-0.217 0.484-0.484 0.484h-0.047c-0.267 0-0.484-0.217-0.484-0.484v0c0-0.267 0.217-0.484 0.484-0.484z"></path>
</svg>
