<!-- Generated by IcoMoon.io -->
<svg version="1.1" xmlns="http://www.w3.org/2000/svg" width="32" height="32" viewBox="0 0 32 32">
<title>ic_additional_feature01</title>
<path fill="#fff" d="M30.933 19.91c0.734 0.247 1.175 0.962 1.043 1.693s-0.798 1.265-1.576 1.264h-2.176c0.164 1.023-0.15 2.063-0.86 2.846s-1.745 1.229-2.83 1.221h-3.733c-0.295 0-0.533-0.228-0.533-0.508s0.239-0.508 0.533-0.508h1.125c-0.86-0.788-1.264-1.926-1.083-3.051h-10.219c0.164 1.023-0.15 2.063-0.86 2.846s-1.745 1.229-2.83 1.221h-3.733c-0.295 0-0.533-0.228-0.533-0.508s0.239-0.508 0.533-0.508h1.125c-0.861-0.788-1.264-1.926-1.083-3.051h-1.643c-0.778 0.001-1.444-0.533-1.576-1.264s0.309-1.447 1.043-1.693v-17.889c0-0.842 0.716-1.525 1.6-1.525h24.533c0.884 0 1.6 0.683 1.6 1.525v5.084c0 0.842-0.716 1.525-1.6 1.525h-1.394l1.778 5.084h1.749c0.884 0 1.6 0.683 1.6 1.525v4.669zM25.067 19.816h4.8v-3.051h-1.067c-0.589 0-1.067-0.455-1.067-1.017v-1.017h-6.4v6.82c0.673-1.074 1.888-1.733 3.2-1.735 0.138 0 0.276 0.008 0.413 0.023 0.039-0.012 0.079-0.020 0.12-0.023zM29.867 15.24c0-0.281-0.239-0.508-0.533-0.508h-0.533v1.017h1.067v-0.508zM26.46 13.715l-1.778-5.084h-2.815c-0.295 0-0.533 0.228-0.533 0.508v4.576h5.126zM1.067 21.342c0 0.281 0.239 0.508 0.533 0.508h1.965c0.189-0.379 0.446-0.723 0.76-1.017h-2.725c-0.295 0-0.533 0.228-0.533 0.508zM6.933 25.918c1.472-0.002 2.665-1.139 2.667-2.542 0-1.404-1.194-2.542-2.667-2.542s-2.667 1.138-2.667 2.542c0 1.404 1.194 2.542 2.667 2.542zM2.133 19.816h4.8c1.44 0.002 2.751 0.793 3.368 2.034h9.965v-12.711c0-0.842 0.716-1.525 1.6-1.525h5.333c0.295 0 0.533-0.228 0.533-0.508v-5.084c0-0.281-0.239-0.508-0.533-0.508h-24.533c-0.295 0-0.533 0.228-0.533 0.508v17.795zM24.533 25.918c1.472-0.002 2.665-1.139 2.667-2.542 0-1.404-1.194-2.542-2.667-2.542s-2.667 1.138-2.667 2.542c0 1.404 1.194 2.542 2.667 2.542zM27.901 21.85h2.499c0.295 0 0.533-0.228 0.533-0.508s-0.239-0.508-0.533-0.508h-3.259c0.314 0.294 0.572 0.638 0.761 1.017z"></path>
<path fill="#fff" d="M5.333 23.375c0-0.842 0.716-1.525 1.6-1.525s1.6 0.683 1.6 1.525c0 0.842-0.716 1.525-1.6 1.525s-1.6-0.683-1.6-1.525zM6.4 23.375c0 0.281 0.239 0.508 0.533 0.508s0.533-0.228 0.533-0.508c0-0.281-0.239-0.508-0.533-0.508s-0.533 0.228-0.533 0.508z"></path>
<path fill="#fff" d="M22.933 23.375c0-0.842 0.716-1.525 1.6-1.525s1.6 0.683 1.6 1.525c0 0.842-0.716 1.525-1.6 1.525s-1.6-0.683-1.6-1.525zM24 23.375c0 0.281 0.239 0.508 0.533 0.508s0.533-0.228 0.533-0.508c0-0.281-0.239-0.508-0.533-0.508s-0.533 0.228-0.533 0.508z"></path>
<path fill="#3dc75a" d="M22.933 11.173c0.141-0 0.277-0.054 0.377-0.149l0.533-0.508c0.202-0.2 0.199-0.517-0.006-0.713s-0.538-0.199-0.748-0.006l-0.533 0.508c-0.152 0.145-0.198 0.364-0.116 0.554s0.277 0.314 0.493 0.314z"></path>
<path fill="#3dc75a" d="M23.090 13.058c0.208 0.198 0.546 0.198 0.754 0l1.067-1.017c0.202-0.2 0.199-0.517-0.006-0.713s-0.538-0.199-0.748-0.006l-1.067 1.017c-0.208 0.199-0.208 0.52 0 0.719z"></path>
<path fill="#3dc75a" d="M11.504 3.637l6.933 4.576c0.144 0.095 0.23 0.251 0.23 0.418v2.542c-0 0.189-0.11 0.362-0.286 0.45s-0.388 0.075-0.551-0.032l-0.763-0.503v6.187c0 0.562-0.478 1.017-1.067 1.017h-9.6c-0.589 0-1.067-0.455-1.067-1.017v-6.187l-0.763 0.503c-0.163 0.108-0.375 0.12-0.551 0.032s-0.286-0.261-0.286-0.45v-2.542c0-0.167 0.086-0.323 0.23-0.418l6.933-4.576c0.183-0.12 0.424-0.12 0.607 0zM9.6 12.19v5.084h3.2v-5.084h-3.2zM16 17.274v-6.891l-4.8-3.168-4.8 3.168v6.891h2.133v-5.084c0-0.562 0.478-1.017 1.067-1.017h3.2c0.589 0 1.067 0.455 1.067 1.017v5.084h2.133zM11.504 6.179l6.097 4.023v-1.305l-6.4-4.224-6.4 4.224v1.305l6.096-4.023c0.183-0.12 0.424-0.12 0.607 0z"></path>
<path fill="#fff" d="M21.333 3.546h4.8c0.295 0 0.533-0.228 0.533-0.508s-0.239-0.508-0.533-0.508h-4.8c-0.295 0-0.533 0.228-0.533 0.508s0.239 0.508 0.533 0.508z"></path>
<path fill="#fff" d="M19.2 2.529h-0.533c-0.295 0-0.533 0.228-0.533 0.508s0.239 0.508 0.533 0.508h0.533c0.295 0 0.533-0.228 0.533-0.508s-0.239-0.508-0.533-0.508z"></path>
<path fill="#fff" d="M1.067 26.934c0.295 0 0.533-0.228 0.533-0.508s-0.239-0.508-0.533-0.508h-0.533c-0.295 0-0.533 0.228-0.533 0.508s0.239 0.508 0.533 0.508h0.533z"></path>
<path fill="#fff" d="M18.667 26.934c0.295 0 0.533-0.228 0.533-0.508s-0.239-0.508-0.533-0.508h-0.533c-0.295 0-0.533 0.228-0.533 0.508s0.239 0.508 0.533 0.508h0.533z"></path>
</svg>
