<!-- Generated by IcoMoon.io -->
<svg version="1.1" xmlns="http://www.w3.org/2000/svg" width="32" height="32" viewBox="0 0 32 32">
<title>ic_additional_feature04</title>
<path d="M16.128 14.272c0.142 0 0.277-0.056 0.377-0.156l7.408-7.408c0.108-0.108 0.164-0.257 0.155-0.409s-0.083-0.293-0.204-0.388c-4.564-3.57-10.96-3.618-15.578-0.117-0.123 0.093-0.2 0.235-0.21 0.388s0.046 0.305 0.155 0.414l7.52 7.52c0.1 0.1 0.236 0.156 0.377 0.156zM6.331 24.070c0.142 0 0.277-0.056 0.377-0.156l7.536-7.536c0.1-0.1 0.156-0.236 0.156-0.377s-0.056-0.277-0.156-0.377l-7.536-7.536c-0.107-0.109-0.257-0.166-0.41-0.155-0.152 0.009-0.293 0.084-0.387 0.204-1.752 2.248-2.706 5.014-2.711 7.864 0 0.212 0.005 0.424 0.016 0.608-0.001 0.041 0.001 0.082 0.006 0.122 0.007 0.181 0.022 0.358 0.042 0.536 0.001 0.034 0.005 0.068 0.012 0.101 0.016 0.174 0.038 0.354 0.065 0.529 0.003 0.033 0.009 0.065 0.017 0.097 0.022 0.151 0.044 0.297 0.075 0.439 0.093 0.484 0.215 0.963 0.365 1.433 0.052 0.172 0.109 0.338 0.17 0.499 0.013 0.040 0.027 0.081 0.044 0.12 0.051 0.14 0.102 0.275 0.156 0.391 0.199 0.482 0.427 0.952 0.683 1.406 0.135 0.241 0.28 0.481 0.435 0.716l0.015 0.023c0.111 0.163 0.222 0.326 0.334 0.48 0.084 0.118 0.169 0.231 0.259 0.343 0.053 0.073 0.122 0.132 0.202 0.172 0.073 0.035 0.153 0.054 0.233 0.054zM15.207 28.772c0.261 0.022 0.527 0.029 0.793 0.029 2.849-0.006 5.616-0.96 7.864-2.71 0.121-0.094 0.195-0.235 0.204-0.388s-0.047-0.302-0.155-0.41l-7.408-7.408c-0.209-0.208-0.546-0.208-0.754 0l-7.52 7.52c-0.109 0.109-0.166 0.26-0.155 0.415s0.088 0.296 0.212 0.389c0.132 0.099 0.27 0.198 0.41 0.298l0.015 0.010 0 0c0.12 0.081 0.239 0.162 0.359 0.24l0.009 0.007c0.017 0.013 0.034 0.025 0.051 0.036l0.11 0.067c0.091 0.056 0.184 0.113 0.274 0.165 0.519 0.308 1.060 0.578 1.618 0.806 0.136 0.057 0.272 0.113 0.386 0.153 0.041 0.019 0.084 0.034 0.128 0.046 0.181 0.068 0.368 0.13 0.541 0.183 0.206 0.069 0.413 0.126 0.61 0.174 0.187 0.051 0.374 0.096 0.541 0.13 0.028 0.007 0.057 0.013 0.086 0.017 0.196 0.040 0.393 0.078 0.589 0.106l0.095 0.013c0.157 0.028 0.32 0.046 0.477 0.062l0.061 0.007c0.048 0.006 0.095 0.011 0.145 0.013 0.148 0.016 0.291 0.026 0.415 0.030zM9.799 25.956l-0.073-0.045c-0.013-0.010-0.027-0.020-0.041-0.029-0.086-0.055-0.172-0.112-0.255-0.168l6.698-6.698 6.594 6.593c-1.971 1.378-4.316 2.119-6.721 2.125-0.235 0-0.47-0.004-0.726-0.026-0.131-0.005-0.258-0.015-0.388-0.029-0.020-0.002-0.084-0.008-0.103-0.008l-0.082-0.010-0.016-0.002c-0.128-0.014-0.261-0.028-0.405-0.053l-0.113-0.016c-0.167-0.024-0.333-0.057-0.482-0.086l-0.026-0.005c-0.029-0.007-0.054-0.011-0.078-0.015-0.17-0.035-0.335-0.075-0.514-0.124-0.183-0.045-0.361-0.094-0.553-0.158-0.165-0.050-0.33-0.105-0.49-0.165-0.013-0.005-0.099-0.036-0.113-0.040-0.121-0.044-0.238-0.092-0.359-0.142l-0-0-0.011-0.005c-0.512-0.21-1.009-0.458-1.485-0.741-0.077-0.045-0.154-0.092-0.231-0.139l-0-0-0.001-0-0-0-0.024-0.015zM4.411 17.813c-0.002-0.013-0.006-0.035-0.011-0.054l-0.001-0.006c-0.025-0.16-0.045-0.325-0.068-0.526 0-0.021-0.001-0.042-0.003-0.063-0.020-0.165-0.035-0.331-0.039-0.501-0.001-0.023-0.003-0.045-0.006-0.067l0 0.001c0-0.006 0-0.011 0-0.017-0.010-0.193-0.015-0.386-0.015-0.579 0.004-2.405 0.746-4.751 2.124-6.721l6.721 6.721-6.722 6.722c-0.067-0.095-0.132-0.192-0.196-0.286l-0-0-0.021-0.030c-0.137-0.208-0.269-0.426-0.393-0.647-0.239-0.423-0.451-0.86-0.635-1.309-0.050-0.108-0.090-0.217-0.146-0.367l-0.009-0.023-0.023-0.067c-0.054-0.143-0.104-0.286-0.151-0.444-0.139-0.436-0.252-0.88-0.338-1.33-0.030-0.137-0.049-0.269-0.068-0.406zM25.781 23.92c0.012 0 0.024-0 0.036-0.001 0.154-0.010 0.295-0.087 0.388-0.209 1.678-2.22 2.589-4.926 2.594-7.709 0.008-2.787-0.904-5.498-2.594-7.714-0.093-0.123-0.235-0.199-0.388-0.21-0.153-0.009-0.303 0.048-0.413 0.155l-7.392 7.392c-0.1 0.1-0.156 0.236-0.156 0.377s0.056 0.277 0.156 0.377l7.392 7.386c0.1 0.1 0.236 0.156 0.377 0.156zM25.714 22.566l-6.57-6.566 6.571-6.571c1.322 1.936 2.026 4.227 2.019 6.571-0.005 2.341-0.708 4.627-2.019 6.566zM16.128 12.985l-6.698-6.698c4.022-2.73 9.314-2.689 13.292 0.104l-6.594 6.594z"></path>
<path d="M0.762 13.346c-0.142-0.022-0.286 0.013-0.401 0.098s-0.19 0.214-0.209 0.356c-0.096 0.729-0.147 1.464-0.151 2.199h1.067c0.004-0.687 0.052-1.373 0.141-2.054 0.036-0.287-0.161-0.552-0.446-0.6z"></path>
<path d="M16 1.067v-1.067c-3.013-0.001-5.965 0.851-8.514 2.459-0.633 0.398-1.236 0.841-1.805 1.326-0.58 0.477-1.12 1-1.615 1.565-0.994 1.119-1.83 2.37-2.483 3.717-0.084 0.164-0.157 0.333-0.231 0.501-0.060 0.131-0.064 0.28-0.011 0.414s0.159 0.24 0.292 0.293c0.268 0.106 0.573-0.015 0.695-0.276 0.069-0.157 0.136-0.315 0.215-0.468 0.611-1.26 1.393-2.43 2.324-3.477 0.459-0.524 0.96-1.009 1.499-1.451 0.532-0.454 1.097-0.869 1.69-1.241 2.378-1.5 5.133-2.295 7.944-2.293z"></path>
<path d="M0.604 11.642c-0.041 0.14-0.023 0.29 0.048 0.417l0.062 0.083c0.024 0.027 0.051 0.051 0.081 0.071 0.026 0.022 0.054 0.041 0.085 0.054 0.033 0.014 0.066 0.026 0.101 0.036 0.137 0.031 0.281 0.011 0.404-0.056 0.058-0.036 0.109-0.082 0.149-0.137 0.131-0.164 0.151-0.39 0.051-0.574-0.036-0.060-0.082-0.114-0.136-0.158-0.163-0.142-0.396-0.168-0.587-0.066-0.124 0.074-0.216 0.192-0.258 0.33z"></path>
<path d="M16 32c-4.787-0.006-9.321-2.149-12.364-5.843-2.349-2.864-3.634-6.453-3.635-10.157 0-0.294 0.239-0.533 0.533-0.533s0.533 0.239 0.533 0.533c-0.005 4.531 2.053 8.819 5.592 11.648 2.642 2.139 5.942 3.3 9.341 3.285 3.456-0.002 6.805-1.203 9.474-3.398 0.116-0.095 0.225-0.188 0.334-0.281 0.52-0.442 1.003-0.926 1.445-1.445 0.135-0.156 0.268-0.309 0.39-0.466 5.111-6.381 4.148-15.684-2.162-20.882-2.673-2.193-6.023-3.392-9.481-3.394-0.294 0-0.533-0.239-0.533-0.533s0.239-0.533 0.533-0.533c4.855-0.005 9.448 2.2 12.48 5.992 4.693 5.845 4.693 14.167-0.001 20.012-0.128 0.165-0.273 0.333-0.418 0.501-0.478 0.561-1 1.082-1.561 1.56-0.114 0.098-0.229 0.196-0.349 0.295-2.86 2.352-6.448 3.639-10.151 3.641z"></path>
</svg>
