<!-- Generated by IcoMoon.io -->
<svg version="1.1" xmlns="http://www.w3.org/2000/svg" width="32" height="32" viewBox="0 0 32 32">
<title>ic_footer_social_tg</title>
<path fill="#fff" d="M8.61 17.435l-6.759-2.523c-0.687-0.257-0.692-1.226-0.008-1.49l27.739-10.701c0.588-0.227 1.195 0.288 1.067 0.905l-4.978 23.945c-0.117 0.565-0.78 0.822-1.248 0.482l-6.795-4.934c-0.413-0.299-0.975-0.283-1.37 0.038l-3.768 3.071c-0.437 0.358-1.096 0.158-1.264-0.381l-2.616-8.413zM24.015 7.957l-13.21 8.136c-0.506 0.313-0.745 0.924-0.581 1.496l1.428 5.018c0.101 0.356 0.618 0.319 0.667-0.048l0.371-2.752c0.070-0.518 0.317-0.995 0.7-1.352l10.902-10.134c0.204-0.189-0.040-0.51-0.278-0.364z"></path>
</svg>
