<!-- Generated by IcoMoon.io -->
<svg version="1.1" xmlns="http://www.w3.org/2000/svg" width="32" height="32" viewBox="0 0 32 32">
<title>ic_footer_social_vk</title>
<path fill="#fff" d="M31.793 23.136c-0.039-0.083-0.075-0.153-0.108-0.208-0.555-0.999-1.614-2.225-3.179-3.678l-0.033-0.033-0.017-0.016-0.017-0.017h-0.017c-0.71-0.677-1.16-1.132-1.348-1.365-0.344-0.444-0.422-0.893-0.233-1.348 0.133-0.344 0.633-1.070 1.498-2.18 0.455-0.588 0.815-1.059 1.082-1.415 1.919-2.552 2.752-4.183 2.496-4.893l-0.099-0.166c-0.067-0.1-0.239-0.191-0.516-0.275s-0.633-0.097-1.065-0.042l-4.793 0.033c-0.078-0.027-0.189-0.025-0.333 0.008s-0.217 0.050-0.217 0.050l-0.083 0.042-0.066 0.050c-0.055 0.033-0.117 0.091-0.183 0.175s-0.122 0.18-0.166 0.291c-0.522 1.342-1.115 2.591-1.781 3.744-0.411 0.688-0.787 1.284-1.132 1.789s-0.632 0.876-0.865 1.115c-0.233 0.239-0.444 0.43-0.633 0.574s-0.333 0.205-0.432 0.183c-0.1-0.022-0.194-0.044-0.283-0.067-0.155-0.1-0.28-0.236-0.374-0.408s-0.158-0.388-0.191-0.649c-0.033-0.261-0.053-0.485-0.058-0.674s-0.003-0.455 0.008-0.799c0.012-0.344 0.017-0.577 0.017-0.699 0-0.422 0.008-0.879 0.025-1.373s0.030-0.885 0.042-1.173c0.011-0.288 0.017-0.594 0.017-0.915s-0.020-0.574-0.058-0.757c-0.038-0.183-0.097-0.36-0.174-0.533s-0.192-0.305-0.341-0.399c-0.15-0.094-0.336-0.169-0.557-0.225-0.588-0.133-1.337-0.205-2.247-0.216-2.063-0.022-3.389 0.111-3.977 0.4-0.233 0.122-0.444 0.288-0.632 0.499-0.2 0.244-0.228 0.377-0.083 0.399 0.666 0.1 1.137 0.338 1.414 0.715l0.1 0.2c0.078 0.144 0.155 0.399 0.233 0.766s0.128 0.771 0.15 1.215c0.055 0.81 0.055 1.503 0 2.080s-0.108 1.026-0.158 1.348-0.125 0.583-0.225 0.782c-0.1 0.2-0.166 0.322-0.2 0.366s-0.061 0.072-0.083 0.083c-0.144 0.055-0.294 0.083-0.449 0.083s-0.344-0.078-0.566-0.233c-0.222-0.155-0.452-0.369-0.691-0.641s-0.508-0.652-0.807-1.14c-0.299-0.488-0.61-1.065-0.932-1.731l-0.266-0.483c-0.166-0.311-0.394-0.763-0.682-1.356s-0.544-1.168-0.766-1.723c-0.089-0.233-0.222-0.41-0.399-0.532l-0.083-0.050c-0.055-0.044-0.144-0.091-0.266-0.141s-0.25-0.086-0.383-0.108l-4.56 0.033c-0.466 0-0.782 0.106-0.949 0.316l-0.067 0.1c-0.033 0.056-0.050 0.144-0.050 0.266s0.033 0.272 0.1 0.449c0.666 1.564 1.39 3.073 2.172 4.527s1.462 2.624 2.038 3.511c0.577 0.888 1.165 1.725 1.764 2.513s0.996 1.293 1.19 1.514c0.194 0.222 0.347 0.388 0.458 0.499l0.416 0.399c0.266 0.266 0.657 0.585 1.173 0.957s1.087 0.738 1.714 1.099c0.627 0.36 1.356 0.654 2.188 0.882s1.642 0.319 2.43 0.275h1.914c0.388-0.034 0.682-0.156 0.882-0.366l0.066-0.083c0.044-0.066 0.086-0.169 0.125-0.308s0.058-0.291 0.058-0.458c-0.011-0.477 0.025-0.907 0.108-1.29s0.178-0.671 0.283-0.865c0.106-0.194 0.225-0.358 0.358-0.491s0.228-0.214 0.283-0.241c0.055-0.028 0.099-0.047 0.133-0.058 0.266-0.089 0.58-0.003 0.941 0.258s0.699 0.583 1.015 0.965c0.316 0.383 0.696 0.813 1.14 1.29s0.832 0.832 1.165 1.065l0.333 0.2c0.222 0.133 0.511 0.255 0.866 0.366s0.665 0.139 0.932 0.083l4.26-0.066c0.421 0 0.749-0.070 0.982-0.208s0.371-0.291 0.416-0.458c0.045-0.166 0.047-0.355 0.008-0.566s-0.078-0.358-0.117-0.441z"></path>
</svg>
