<!-- Generated by IcoMoon.io -->
<svg version="1.1" xmlns="http://www.w3.org/2000/svg" width="32" height="32" viewBox="0 0 32 32">
<title>ic_footer_social_ok</title>
<path fill="#fff" d="M15.999 16.189c4.637 0 8.424-3.624 8.424-8.085 0-4.48-3.787-8.104-8.424-8.104-4.639 0-8.425 3.624-8.425 8.104 0 4.461 3.787 8.085 8.425 8.085zM15.999 4.105c2.279 0 4.137 1.788 4.137 3.999 0 2.192-1.859 3.98-4.137 3.98s-4.137-1.788-4.137-3.98c-0.001-2.212 1.857-3.999 4.137-3.999zM8.523 20.861c-2.117-1.312-3.045-2.080-2.228-3.687 0.481-0.912 1.799-1.681 3.544-0.356 0 0 2.357 1.807 6.163 1.807 3.804 0 6.163-1.807 6.163-1.807 1.747-1.319 3.059-0.556 3.545 0.356 0.805 1.607-0.123 2.373-2.24 3.692l0.001 0.001c-1.779 1.088-4.228 1.519-5.845 1.681-0.224-0.216 1.732 1.66 3.525 3.38 1.416 1.358 2.73 2.618 2.79 2.675 1.812 1.787-1.136 4.58-2.968 2.855-1.22-1.193-3-2.905-4.865-4.699l-0.091-0.088-4.956 4.78c-1.831 1.719-4.78-1.099-2.948-2.855 5.461-5.253 6.272-6.033 6.294-6.055-0.012 0.011-0.228 0.22 0 0-0 0-0 0-0 0-1.597-0.163-4.084-0.569-5.884-1.681z"></path>
</svg>
