<!-- Generated by IcoMoon.io -->
<svg version="1.1" xmlns="http://www.w3.org/2000/svg" width="32" height="32" viewBox="0 0 32 32">
<title>ic_icon_refresh_white</title>
<path fill="#fff" d="M18.526 13.474l2.526-2.526c-2.787-2.787-7.318-2.787-10.105 0-0.851 0.851-1.448 1.869-1.768 2.947h-2.459c0.379-1.693 1.221-3.31 2.543-4.632 3.722-3.722 9.752-3.722 13.474 0l2.526-2.526v6.737h-6.737zM22.821 18.105l2.459 0c-0.379 1.693-1.221 3.309-2.543 4.631-3.722 3.722-9.752 3.722-13.474 0l-2.526 2.526v-6.737h6.737l-2.526 2.526c2.787 2.787 7.318 2.787 10.105 0 0.851-0.851 1.432-1.869 1.768-2.947z"></path>
</svg>
