<!-- Generated by IcoMoon.io -->
<svg version="1.1" xmlns="http://www.w3.org/2000/svg" width="32" height="32" viewBox="0 0 32 32">
<title>ic_icon_phone_white1</title>
<path fill="#fff" d="M22.218 20.536l3.387 0.369c1.347 0.153 2.36 1.233 2.347 2.517v2.199c0 1.436-1.253 2.631-2.76 2.542-11.373-0.674-20.48-9.343-21.187-20.198-0.093-1.436 1.16-2.631 2.667-2.631h2.307c1.36 0 2.493 0.966 2.653 2.25l0.387 3.203c0.093 0.775-0.187 1.538-0.76 2.085l-2.467 2.352c1.92 3.61 5.013 6.546 8.787 8.377l2.453-2.339c0.573-0.547 1.373-0.813 2.187-0.725zM17.138 7.927c4.24 0.508 7.56 3.673 8.093 7.716 0.080 0.648 0.653 1.119 1.32 1.119 0.053 0 0.107 0 0.16-0.013 0.733-0.089 1.253-0.725 1.16-1.424-0.68-5.199-4.96-9.279-10.413-9.927-0.733-0.076-1.4 0.419-1.48 1.119-0.093 0.699 0.427 1.335 1.16 1.411zM17.645 10.608c-0.707-0.178-1.44 0.229-1.627 0.915s0.24 1.373 0.96 1.551c1.4 0.343 2.493 1.386 2.867 2.733 0.16 0.572 0.693 0.953 1.293 0.953 0.107 0 0.227-0.013 0.333-0.038 0.707-0.178 1.133-0.877 0.96-1.551-0.627-2.25-2.453-3.991-4.787-4.563z"></path>
</svg>
