<!-- Generated by IcoMoon.io -->
<svg version="1.1" xmlns="http://www.w3.org/2000/svg" width="32" height="32" viewBox="0 0 32 32">
<title>ic_ruble_green</title>
<path fill="#3dc75a" d="M29 9.975c0 5.509-4.835 9.975-10.821 9.975h-5.519v2.142h6.608c0.562 0 1.017 0.42 1.017 0.938v4.017c0 0.518-0.455 0.938-1.017 0.938h-6.608v3.079c0 0.518-0.455 0.938-1.017 0.938h-4.357c-0.562 0-1.017-0.42-1.017-0.938v-3.079h-2.251c-0.562 0-1.017-0.42-1.017-0.938v-4.017c0-0.518 0.455-0.938 1.017-0.938h2.251v-2.142h-2.251c-0.562 0-1.017-0.42-1.017-0.938v-4.017c0-0.518 0.455-0.938 1.017-0.938h2.251v-13.121c0-0.518 0.455-0.938 1.017-0.938h10.894c5.967 0 10.821 4.475 10.821 9.975zM18.179 5.892h-5.519v8.167h5.519c2.443 0 4.43-1.832 4.43-4.083s-1.987-4.083-4.43-4.083z"></path>
</svg>
