<!-- Generated by IcoMoon.io -->
<svg version="1.1" xmlns="http://www.w3.org/2000/svg" width="32" height="32" viewBox="0 0 32 32">
<title>ic_uphome_logo_icon_outline</title>
<path fill="none" stroke="#fff" stroke-linejoin="miter" stroke-linecap="butt" stroke-miterlimit="4" stroke-width="1.3333" d="M4.884 15.958v-0.681l-3.766 0.080c-0.104 0.002-0.173-0.077-0.175-0.155v0c-0.001-0.041 0.016-0.083 0.050-0.115 0 0 0 0 0 0l15.215-14.159 5.613 5.622h3.875v3.638l5.582 4.767c0.068 0.058 0.073 0.153 0.017 0.217v0c-0.031 0.035-0.077 0.057-0.129 0.058 0 0 0 0-0 0l-3.711 0.076v10.753c0 2.905-2.393 5.276-5.365 5.276h-11.842c-2.972 0-5.364-2.371-5.364-5.276v-10.099z"></path>
<path fill="#fff" d="M22.097 32h-11.849c-3.331 0-6.031-2.661-6.031-5.943v-10.057l-3.538 0.047c-0.37 0.005-0.674-0.287-0.679-0.651-0.003-0.185 0.074-0.363 0.21-0.489l9.627-8.938 10.814 8.857c0.285 0.233 0.324 0.649 0.087 0.93-0.129 0.152-0.32 0.24-0.521 0.238l-4.076-0.036v10.71c0.279 1.617 0.909 2.824 1.889 3.622s2.336 1.368 4.067 1.711z"></path>
</svg>
