<!-- Generated by IcoMoon.io -->
<svg version="1.1" xmlns="http://www.w3.org/2000/svg" width="32" height="32" viewBox="0 0 32 32">
<title>icon-2</title>
<path fill="#3dc75a" d="M3.916 15.958l-3.065 0.066c-0.46 0.010-0.84-0.352-0.85-0.807-0.005-0.233 0.090-0.458 0.261-0.618l15.584-14.598 5.834 5.882h4.237v3.997l5.314 4.567c0.347 0.299 0.385 0.82 0.084 1.164-0.154 0.176-0.376 0.28-0.612 0.285l-3.038 0.063v10.099c0 3.282-2.683 5.943-5.992 5.943h-11.765c-3.309 0-5.992-2.661-5.992-5.943v-10.099z"></path>
<path fill="#017ff8" d="M21.954 32h-11.772c-3.309 0-5.992-2.661-5.992-5.943v-10.057l-3.515 0.047c-0.368 0.005-0.67-0.287-0.675-0.652-0.003-0.185 0.073-0.362 0.209-0.489l9.564-8.938 10.744 8.857c0.283 0.233 0.322 0.649 0.086 0.93-0.128 0.152-0.318 0.24-0.518 0.238l-4.049-0.036v10.71c0.277 1.617 0.903 2.824 1.877 3.622s2.321 1.368 4.041 1.711z"></path>
</svg>
