<svg width="179" height="40" viewBox="0 0 179 40" fill="none" xmlns="http://www.w3.org/2000/svg">
<path fill-rule="evenodd" clip-rule="evenodd" d="M59.5517 31.2978C62.5602 31.2978 64.9054 30.4861 66.5872 28.8629C68.269 27.2397 69.1099 24.9634 69.1099 22.0342V11.2593H62.6069V21.8383C62.6069 23.2749 62.35 24.3197 61.8361 24.9728C61.3222 25.6258 60.5794 25.9523 59.6077 25.9523C58.636 25.9523 57.8932 25.6258 57.3794 24.9728C56.8655 24.3197 56.6085 23.2749 56.6085 21.8383V11.2593H49.9935V22.0342C49.9935 24.9634 50.8344 27.2397 52.5162 28.8629C54.198 30.4861 56.5431 31.2978 59.5517 31.2978ZM78.2757 36.2794V29.8145C79.1726 30.6914 80.4714 31.1298 82.1718 31.1298C83.5173 31.1298 84.7553 30.808 85.8858 30.1643C87.0163 29.5206 87.9133 28.597 88.5767 27.3936C89.24 26.1902 89.5717 24.7955 89.5717 23.2096C89.5717 21.6237 89.24 20.2244 88.5767 19.0116C87.9133 17.7988 87.0163 16.8706 85.8858 16.2269C84.7553 15.5832 83.5173 15.2614 82.1718 15.2614C80.2845 15.2614 78.883 15.7745 77.9673 16.8006V15.5412H71.9409V36.2794H78.2757ZM78.8643 25.4206C79.3315 25.943 79.9294 26.2042 80.6582 26.2042C81.387 26.2042 81.985 25.943 82.4521 25.4206C82.9193 24.8981 83.1529 24.1612 83.1529 23.2096C83.1529 22.2581 82.9193 21.5164 82.4521 20.9847C81.985 20.4529 81.387 20.187 80.6582 20.187C79.9294 20.187 79.3315 20.4529 78.8643 20.9847C78.3971 21.5164 78.1636 22.2581 78.1636 23.2096C78.1636 24.1612 78.3971 24.8981 78.8643 25.4206ZM98.3731 30.85V23.6294H104.484V30.85H111.099V11.2593H104.484V18.2H98.3731V11.2593H91.7581V30.85H98.3731ZM126.81 30.1083C125.455 30.7893 123.918 31.1298 122.199 31.1298C120.498 31.1298 118.97 30.7893 117.616 30.1083C116.261 29.4273 115.2 28.4851 114.434 27.2817C113.668 26.0782 113.285 24.7116 113.285 23.1816C113.285 21.6517 113.668 20.285 114.434 19.0816C115.2 17.8781 116.261 16.9406 117.616 16.2689C118.97 15.5972 120.498 15.2614 122.199 15.2614C123.918 15.2614 125.455 15.5972 126.81 16.2689C128.164 16.9406 129.22 17.8781 129.977 19.0816C130.734 20.285 131.112 21.6517 131.112 23.1816C131.112 24.7116 130.734 26.0782 129.977 27.2817C129.22 28.4851 128.164 29.4273 126.81 30.1083ZM122.199 26.2042C121.47 26.2042 120.872 25.9383 120.405 25.4066C119.938 24.8748 119.704 24.1332 119.704 23.1816C119.704 22.2301 119.938 21.4931 120.405 20.9707C120.872 20.4482 121.47 20.187 122.199 20.187C122.927 20.187 123.525 20.4482 123.993 20.9707C124.46 21.4931 124.693 22.2301 124.693 23.1816C124.693 24.1332 124.46 24.8748 123.993 25.4066C123.525 25.9383 122.927 26.2042 122.199 26.2042ZM139.437 23.3775V30.85H133.102V15.5412H139.129V16.9686C140.269 15.8304 141.717 15.2614 143.473 15.2614C144.501 15.2614 145.426 15.4526 146.248 15.8351C147.07 16.2176 147.743 16.8006 148.266 17.5843C148.883 16.838 149.631 16.2642 150.509 15.8631C151.387 15.4619 152.349 15.2614 153.396 15.2614C155.246 15.2614 156.727 15.8304 157.839 16.9686C158.95 18.1067 159.506 19.8232 159.506 22.1181V30.85H153.172V23.2096C153.172 21.4558 152.602 20.5789 151.462 20.5789C150.864 20.5789 150.383 20.8027 150.018 21.2505C149.654 21.6983 149.472 22.4073 149.472 23.3775V30.85H143.137V23.2096C143.137 21.4558 142.567 20.5789 141.427 20.5789C140.829 20.5789 140.348 20.8027 139.984 21.2505C139.619 21.6983 139.437 22.4073 139.437 23.3775ZM170.999 31.1298C173.97 31.1298 176.203 30.3089 177.698 28.667L174.39 25.3366C173.848 25.7471 173.349 26.0363 172.891 26.2042C172.433 26.3721 171.868 26.4561 171.195 26.4561C170.41 26.4561 169.756 26.3021 169.233 25.9943C168.71 25.6864 168.336 25.2433 168.112 24.6649H178.763C178.819 23.7693 178.847 23.2749 178.847 23.1816C178.847 21.5211 178.469 20.0937 177.712 18.8996C176.955 17.7056 175.937 16.8006 174.657 16.1849C173.377 15.5692 171.961 15.2614 170.41 15.2614C168.766 15.2614 167.285 15.5972 165.967 16.2689C164.65 16.9406 163.613 17.8781 162.856 19.0816C162.099 20.285 161.721 21.6517 161.721 23.1816C161.721 24.6929 162.104 26.0549 162.87 27.2677C163.636 28.4804 164.72 29.4273 166.121 30.1083C167.523 30.7893 169.149 31.1298 170.999 31.1298ZM168 21.6144H172.933C172.802 20.98 172.522 20.4809 172.092 20.1171C171.662 19.7532 171.12 19.5713 170.466 19.5713C169.812 19.5713 169.27 19.7486 168.84 20.1031C168.411 20.4576 168.13 20.9613 168 21.6144Z" fill="white"/>
<path fill-rule="evenodd" clip-rule="evenodd" d="M5.26224 19.947L1.41224 20.029C0.835111 20.0413 0.35716 19.5894 0.344711 19.0197C0.338335 18.7282 0.457251 18.4476 0.672024 18.2474L20.2453 0L27.573 7.35248H32.8946V12.3485L39.5684 18.0574C40.0046 18.4306 40.0518 19.0823 39.6737 19.5128C39.4802 19.7333 39.2011 19.8626 38.9056 19.8687L35.0896 19.947V32.5713C35.0896 36.674 31.7203 40 27.5639 40H12.7879C8.63158 40 5.26224 36.674 5.26224 32.5713V19.947Z" fill="url(#paint0_linear)"/>
<path fill-rule="evenodd" clip-rule="evenodd" d="M27.573 39.9999H12.7879C8.63158 39.9999 5.26224 36.6739 5.26224 32.5712V19.9999L0.847388 20.0583C0.385617 20.0644 0.00626276 19.6997 7.50147e-05 19.2439C-0.00306067 19.0127 0.0922327 18.7908 0.262751 18.6322L12.2747 7.45996L25.7683 18.5315C26.1235 18.8228 26.1721 19.3433 25.8768 19.6939C25.7163 19.8844 25.4775 19.9938 25.2264 19.9916L20.1407 19.9468V33.3341C20.4891 35.3548 21.2748 36.8638 22.4978 37.8613C23.7207 38.8588 25.4126 39.5717 27.573 39.9999Z" fill="#017FF8"/>
<defs>
<linearGradient id="paint0_linear" x1="0.344448" y1="0" x2="0.344448" y2="40" gradientUnits="userSpaceOnUse">
<stop stop-color="#61EB7A"/>
<stop offset="1" stop-color="#1DA53D"/>
</linearGradient>
</defs>
</svg>
