<svg width="97" height="96" viewBox="0 0 97 96" fill="none" xmlns="http://www.w3.org/2000/svg">
<g clip-path="url(#clip0)">
<path d="M76.9604 55.7419H19.3041L13.1106 68.129H18.7129V96H77.5516V68.129H83.1539L76.9604 55.7419ZM75.0461 58.8387L78.1429 65.0323H53.7346L50.6378 58.8387H75.0461ZM21.2185 58.8387H45.6267L42.53 65.0323H18.1217L21.2185 58.8387ZM74.4549 92.9032H49.6807V82.0645H46.5839V92.9032H21.8097V68.129H44.4443L46.5839 63.849V77.4194H49.6807V63.849L51.8203 68.129H74.4549V92.9032Z" fill="#132E71"/>
<path d="M24.9065 80.5161H34.1968V83.6129H24.9065V80.5161Z" fill="#132E71"/>
<path d="M24.9065 86.7097H34.1968V89.8065H24.9065V86.7097Z" fill="#132E71"/>
<path d="M37.2937 86.7097H40.3905V89.8065H37.2937V86.7097Z" fill="#132E71"/>
<path d="M40.9817 25.1832L48.1324 23.3604L55.2831 25.1817L55.8434 17.5033L59.6417 11.0149L52.9235 8.10711L48.1324 2.18347L43.3398 8.10711L36.6216 11.0149L40.42 17.5033L40.9817 25.1832ZM45.2693 10.6452L48.1324 7.10686L50.9956 10.6467L55.2037 12.4695L52.8086 16.5612L52.4646 21.2699L48.1324 20.1661L43.8003 21.2684L43.4563 16.5597L41.0611 12.4672L45.2693 10.6452Z" fill="#3DC75A"/>
<path d="M17.1336 28.3435L19.3836 24.502L15.3977 22.7752L12.5194 19.2157L9.64116 22.7737L5.65527 24.5005L7.90527 28.342L8.23793 32.9236L12.5194 31.8349L16.8024 32.9251L17.1336 28.3435ZM14.0988 27.3984L13.9809 29.0103L12.5194 28.6391L11.0595 29.0103L10.9401 27.3984L10.0933 25.9506L11.5691 25.3117L12.5194 24.1391L13.4683 25.3132L14.9441 25.9528L14.0988 27.3984Z" fill="#3DC75A"/>
<path d="M88.3594 28.3435L90.6094 24.502L86.6235 22.7752L83.7453 19.2157L80.867 22.7737L76.8811 24.5005L79.1311 28.342L79.4638 32.9236L83.7453 31.8349L88.0283 32.9251L88.3594 28.3435ZM85.3247 27.3984L85.2067 29.0103L83.7453 28.6391L82.2853 29.0103L82.1674 27.3984L81.3206 25.9506L82.7964 25.3117L83.7453 24.1391L84.6941 25.3132L86.1699 25.9528L85.3247 27.3984Z" fill="#3DC75A"/>
<path d="M19.4018 36.9012C22.3504 38.8677 24.9701 41.2674 27.183 44.036L33.3161 51.6993L32.0474 41.5539C31.3851 36.257 28.556 31.3813 24.2858 28.1794L22.8025 27.0673L18.2639 36.1421L19.4018 36.9012ZM23.8647 31.8689C26.4829 34.3465 28.2589 37.6444 28.8675 41.2122C26.9116 38.9153 24.6926 36.8687 22.2468 35.1048L23.8647 31.8689Z" fill="#132E71"/>
<path d="M64.2174 41.5539L62.9487 51.6994L69.0818 44.0345C71.2963 41.2659 73.9145 38.8662 76.863 36.8997L77.9994 36.1406L73.4608 27.0658L71.9775 28.181C67.7088 31.3828 64.8782 36.2571 64.2174 41.5539ZM74.018 35.1049C71.5722 36.8687 69.3517 38.9138 67.3973 41.2122C68.0074 37.6444 69.7819 34.3465 72.4001 31.869L74.018 35.1049Z" fill="#132E71"/>
<path d="M54.3259 52.6451H57.4227V46.1575C57.4227 38.7202 60.0439 31.4803 64.807 25.7653L62.427 23.783C57.2027 30.0529 54.3259 37.9989 54.3259 46.1575V52.6451Z" fill="#132E71"/>
<path d="M65.1646 18.5807H68.2613V21.6775H65.1646V18.5807Z" fill="#3DC75A"/>
<path d="M69.8098 12.3871H72.9066V15.4839H69.8098V12.3871Z" fill="#132E71"/>
<path d="M38.842 52.6451H41.9388V46.1575C41.9388 37.9974 39.062 30.0529 33.8393 23.783L31.4592 25.7653C36.2208 31.4803 38.842 38.7202 38.842 46.1575V52.6451Z" fill="#132E71"/>
<path d="M28.0032 18.5807H31.0999V21.6775H28.0032V18.5807Z" fill="#132E71"/>
<path d="M23.3582 12.3871H26.4549V15.4839H23.3582V12.3871Z" fill="#3DC75A"/>
<path d="M46.584 26.3226H49.6808V29.4194H46.584V26.3226Z" fill="#132E71"/>
<path d="M46.584 32.5161H49.6808V52.6451H46.584V32.5161Z" fill="#3DC75A"/>
<path d="M89.9387 41.8064H93.0355V44.9032H89.9387V41.8064Z" fill="#3DC75A"/>
<path d="M89.9387 48H93.0355V51.0968H89.9387V48Z" fill="#3DC75A"/>
<path d="M93.0356 44.9032H96.1324V48H93.0356V44.9032Z" fill="#3DC75A"/>
<path d="M86.842 44.9032H89.9388V48H86.842V44.9032Z" fill="#3DC75A"/>
<path d="M85.2937 0H88.3905V3.09677H85.2937V0Z" fill="#132E71"/>
<path d="M85.2937 6.1936H88.3905V9.29038H85.2937V6.1936Z" fill="#132E71"/>
<path d="M88.3904 3.0968H91.4872V6.19358H88.3904V3.0968Z" fill="#132E71"/>
<path d="M82.1968 3.0968H85.2935V6.19358H82.1968V3.0968Z" fill="#132E71"/>
<path d="M3.229 48H6.32578V51.0968H3.229V48Z" fill="#132E71"/>
<path d="M3.229 54.1936H6.32578V57.2904H3.229V54.1936Z" fill="#132E71"/>
<path d="M6.32593 51.0968H9.4227V54.1936H6.32593V51.0968Z" fill="#132E71"/>
<path d="M0.132324 51.0968H3.2291V54.1936H0.132324V51.0968Z" fill="#132E71"/>
<path d="M3.229 0H6.32578V3.09677H3.229V0Z" fill="#3DC75A"/>
<path d="M3.229 6.1936H6.32578V9.29038H3.229V6.1936Z" fill="#3DC75A"/>
<path d="M6.32593 3.0968H9.4227V6.19358H6.32593V3.0968Z" fill="#3DC75A"/>
<path d="M0.132324 3.0968H3.2291V6.19358H0.132324V3.0968Z" fill="#3DC75A"/>
</g>
<defs>
<clipPath id="clip0">
<rect width="96" height="96" fill="white" transform="translate(0.132324)"/>
</clipPath>
</defs>
</svg>
