<svg width="96" height="96" viewBox="0 0 96 96" fill="none" xmlns="http://www.w3.org/2000/svg">
<path fill-rule="evenodd" clip-rule="evenodd" d="M82.6455 17.8024C82.5997 18.1255 82.0769 21.8139 82.7705 24.3363C82.967 25.0503 82.7246 25.813 82.1522 26.2829C81.5927 26.7421 80.8202 26.8375 80.1673 26.5315L80.1243 26.5139C80.064 26.4884 79.8626 26.4183 79.3933 26.4183C78.4485 26.4183 77.1559 26.6899 75.9059 26.9526L75.9056 26.9527L75.9051 26.9528C74.5133 27.2452 73.1983 27.5215 72.038 27.5215C71.7386 27.5215 71.4665 27.5033 71.2063 27.4662C69.6422 27.2433 68.2755 26.5855 67.2542 25.5644C66.7095 25.0199 66.2675 24.3927 65.9405 23.7007C64.7831 21.2495 65.2652 18.343 67.1403 16.4678C68.3186 15.2898 69.8957 14.6407 71.5815 14.6399C71.8417 13.7686 72.315 12.968 72.9793 12.3037C74.0304 11.2525 75.438 10.6733 76.9419 10.6733C78.498 10.6733 79.9683 11.2867 81.0819 12.4C82.7816 14.0997 82.7902 16.2847 82.6487 17.78C82.6485 17.7815 82.6474 17.7891 82.6455 17.8024ZM78.7213 22.6925C78.5289 20.1826 78.8544 17.815 78.9198 17.3759C79.0254 16.1967 78.878 15.5 78.4299 15.0518C78.0247 14.6467 77.4961 14.4233 76.9417 14.4233C76.4394 14.4233 75.9738 14.6123 75.6307 14.9553C75.2175 15.3683 75.0315 15.9532 75.1201 16.5599C75.2165 17.2201 74.9551 17.8816 74.4333 18.2973C73.9115 18.7132 73.2082 18.8202 72.5863 18.5789C72.2636 18.4537 71.9263 18.3901 71.5841 18.3901C70.899 18.3901 70.2628 18.6492 69.7921 19.1197C69.0331 19.8785 68.8481 21.0758 69.3313 22.0992C69.4734 22.4 69.6667 22.6739 69.9058 22.9128C70.3546 23.3618 70.9801 23.5908 71.736 23.7539C72.1166 23.836 73.991 23.5231 75.1342 23.2829L75.1365 23.2824C76.3364 23.0304 77.5704 22.7712 78.7213 22.6925Z" fill="#3DC75A"/>
<path fill-rule="evenodd" clip-rule="evenodd" d="M93.1028 12.3818L83.6251 2.90231C81.754 1.03069 79.2878 0 76.6808 0C74.1811 0 71.8447 0.96 70.1095 2.69569L53.4655 19.155C50.3572 22.2643 49.9441 27.087 52.1832 30.7897C51.2114 31.4192 50.2012 32.1936 49.1588 33.1434L45.9948 29.9788C44.1505 28.1342 41.6337 27.1183 38.9084 27.1183C35.8231 27.1183 32.7363 28.4363 30.4388 30.7339L21.5609 39.6135C17.0645 44.1105 16.7257 51.0896 20.806 55.1709L23.2058 57.5713C24.364 58.7293 24.6822 59.7703 24.7688 60.2876C24.8519 60.7834 24.7848 61.1394 24.6948 61.3266C24.1958 61.2262 23.2237 60.66 22.5599 60.2734L22.5598 60.2733C21.2702 59.522 19.9366 58.7451 18.5581 58.7451C17.6639 58.7451 16.8652 59.0713 16.2485 59.6882C14.2229 61.7141 15.5251 64.4899 16.4759 66.5166L16.4773 66.5195C16.8258 67.2627 17.4612 68.6176 17.4187 69.1024C17.4115 69.1027 17.4029 69.1029 17.3926 69.1029C16.9844 69.1029 16.2134 68.7645 15.5332 68.4658C14.4685 67.9984 13.2616 67.4685 11.9755 67.4685C10.8318 67.4685 9.79734 67.8986 8.98378 68.7124C6.83728 70.8592 8.00053 73.4338 8.69559 74.9721C9.36328 76.4496 9.37191 76.7458 9.18178 76.9937C8.6692 77.6618 7.38489 77.1921 6.65201 76.9241C6.58868 76.9009 6.52946 76.8793 6.47522 76.86C5.56397 76.5362 4.62159 76.2013 3.59466 76.2013C2.48109 76.2013 9.36389e-05 76.2819 0.139969 78.8458L9.36399e-05 92.8106C-0.00890636 93.7172 0.631781 94.5002 1.52203 94.6708L8.28347 95.967C8.40103 95.9895 8.51916 96.0006 8.63653 96.0006C9.13247 96.0006 9.61397 95.8035 9.96947 95.4441L35.3836 69.7519L36.7514 71.1201C38.5955 72.9645 41.1121 73.9804 43.8376 73.9806H43.8383C46.9229 73.9806 50.0099 72.6626 52.307 70.365L61.1851 61.4854C65.6817 56.988 66.0203 50.0089 61.9398 45.9277L58.6135 42.6007L61.0987 40.1158L63.1422 42.1598C65.0133 44.0312 67.4795 45.0619 70.0867 45.0619C72.5864 45.0619 74.9227 44.1019 76.658 42.3664L93.302 25.9069C96.9753 22.2321 96.8858 16.1649 93.1028 12.3818ZM54.6545 33.6699L58.4472 37.4634L55.9623 39.9484L51.8137 35.7988C52.8168 34.8982 53.7663 34.2028 54.6545 33.6699ZM58.5329 58.8334C61.5678 55.798 61.9064 51.1977 59.2878 48.5785L49.2012 38.4904C47.6532 40.3178 46.8016 41.8635 46.354 43.1099L50.6712 47.428C52.6998 49.4569 52.7799 52.6782 50.8499 54.6087L48.0222 57.4367C47.1194 58.3401 45.9025 58.8375 44.5957 58.8375C43.2134 58.8375 41.845 58.2623 40.8419 57.2586L34.6638 51.0794C32.6352 49.0504 32.5552 45.829 34.4853 43.8987L37.313 41.0706C38.2162 40.1674 39.433 39.67 40.7395 39.67C41.6755 39.67 42.6048 39.9347 43.4189 40.4166C44.1502 38.919 45.193 37.3881 46.5429 35.8315L43.3422 32.6301C42.2064 31.4939 40.6314 30.8682 38.9079 30.8682C36.8101 30.8682 34.6897 31.7856 33.0905 33.3852L24.2124 42.2648C21.1777 45.3 20.839 49.9002 23.4577 52.5195L25.8573 54.9197C27.2832 56.3453 28.1857 57.9872 28.4671 59.6678C28.7617 61.425 28.3254 63.0379 27.2703 64.0928C26.6167 64.7462 25.7731 65.0916 24.8305 65.0918H24.8298C23.3816 65.092 22.0044 64.2897 20.6723 63.5137L20.6718 63.5134C20.183 63.2286 19.4454 62.7989 18.9489 62.6012C19.0666 63.2095 19.5736 64.29 19.871 64.9238L19.8713 64.9245C20.8202 66.9476 22.1196 69.7178 20.0995 71.7383C19.3705 72.4673 18.4347 72.8526 17.393 72.8528C16.1975 72.853 15.0931 72.3681 14.0251 71.8992L13.9734 71.8764C13.2355 71.552 11.9303 70.9781 11.6356 71.3633C11.4331 71.6277 11.4361 71.9301 12.1128 73.4275L12.1128 73.4275C12.8039 74.9572 13.9606 77.5171 11.8334 79.6446C10.8665 80.6117 9.70416 81.1024 8.37891 81.1024C7.5257 81.1026 5.70371 80.5359 4.64587 80.2069L4.64571 80.2068C4.2614 80.0873 3.97797 79.9992 3.87854 79.981L3.76529 91.2822L8.00654 92.0952L34.0432 65.7739C34.3942 65.419 34.8721 65.2187 35.3712 65.2174H35.3763C35.8735 65.2174 36.3505 65.415 36.7023 65.7668L39.4032 68.4683C40.5391 69.6042 42.1141 70.2299 43.8378 70.23H43.8384C45.9359 70.23 48.0558 69.3128 49.6548 67.7132L58.5329 58.8334ZM42.4735 47.7245C42.9723 49.0316 43.652 49.1839 44.1995 49.224C44.5709 49.2512 44.9133 49.1413 45.2444 48.993C45.5866 48.8398 45.9333 48.348 45.9847 48.0442L48.0196 50.0795C48.5864 50.6465 48.6665 51.4892 48.1983 51.9577L45.3704 54.7858C45.1208 55.0355 44.8117 55.0877 44.596 55.0877C44.2012 55.0877 43.7993 54.9125 43.4943 54.6073L37.3162 48.428C36.7493 47.861 36.6693 47.0184 37.1377 46.5499L39.9653 43.7218C40.2151 43.4722 40.5243 43.4199 40.7399 43.4199C41.1348 43.4199 41.5366 43.595 41.8418 43.9005C41.8418 43.9005 42.211 44.3014 42.2093 44.3149C42.0267 45.8062 42.2279 46.9519 42.4735 47.7245ZM74.0135 39.7069L90.6575 23.2474C92.8613 21.0429 92.7721 17.3546 90.451 15.0332L80.9731 5.55356C79.8104 4.3905 78.286 3.75 76.6808 3.75C75.1829 3.75 73.7883 4.31981 72.7538 5.35462L56.1098 21.8139C54.184 23.7403 54.0095 26.7996 55.5449 29.0901C59.3575 27.7031 62.243 28.4859 63.5847 29.0486C63.7613 29.0848 64.4568 29.5753 64.5072 29.6175C64.5918 29.6648 65.7547 30.633 64.948 31.8051C63.8885 33.3446 62.4181 32.6391 62.4181 32.6391C62.3127 32.5768 60.8729 31.7659 58.4673 32.1795L65.7942 39.5079C66.9571 40.6708 68.4815 41.3113 70.0867 41.3113C71.5844 41.3113 72.979 40.7415 74.0135 39.7069Z" fill="#132E71"/>
<path d="M44.1225 18.6825C43.9632 18.21 43.6311 17.8256 43.183 17.6025C43.183 17.6006 43.183 17.6006 43.1811 17.6006C42.9186 17.4694 42.6374 17.4019 42.3449 17.4019C41.6286 17.4019 40.9853 17.7994 40.6667 18.4404C40.2036 19.365 40.5824 20.4937 41.5067 20.955C41.7692 21.0862 42.0505 21.1537 42.343 21.1537C43.0592 21.1537 43.7024 20.7544 44.0213 20.115C44.2463 19.6669 44.2819 19.1587 44.1225 18.6825Z" fill="#3DC75A"/>
<path d="M36.8339 18.3863C36.6014 17.5913 35.8625 17.0363 35.0356 17.0363C34.8575 17.0363 34.6812 17.0606 34.5087 17.1113C31.291 18.06 27.9552 19.9894 24.3082 23.0081C21.8388 25.0631 20.198 26.8444 19.8942 27.1819L19.8886 27.1875C19.1988 27.9581 19.2663 29.1469 20.0369 29.835C20.38 30.1444 20.8244 30.3131 21.2857 30.3131C21.8182 30.3131 22.3282 30.0844 22.6844 29.6869C22.6844 29.6869 22.6994 29.67 22.7444 29.6213C23.0594 29.2781 24.7488 27.465 27.1734 25.5056C28.8702 24.1294 32.2135 21.675 35.5587 20.7113C36.0406 20.5706 36.4383 20.2519 36.6783 19.8131C36.9183 19.3725 36.9745 18.8663 36.8339 18.3863Z" fill="#3DC75A"/>
<path d="M63.1435 71.6795C63.1079 71.1806 62.8791 70.725 62.5004 70.3989C62.1591 70.1027 61.7239 69.9414 61.2741 69.9414C60.7285 69.9414 60.211 70.1777 59.8547 70.5902L59.7966 70.6577C59.4872 71.0064 57.8221 72.8514 55.4352 74.8464C53.7627 76.2508 50.4606 78.7614 47.1323 79.7814C46.6523 79.9295 46.2604 80.2558 46.0279 80.6983C45.7954 81.1408 45.7486 81.6489 45.8967 82.127C46.1404 82.9164 46.8604 83.447 47.6873 83.447C47.8748 83.447 48.0623 83.4189 48.2423 83.3627C50.0275 82.8039 51.8931 81.9114 53.785 80.7114C55.2683 79.7702 56.7589 78.6527 58.3433 77.297C60.8466 75.1427 62.5081 73.2545 62.6879 73.0464L62.6916 73.0427C63.0197 72.6639 63.1791 72.1802 63.1435 71.6795Z" fill="#3DC75A"/>
<path d="M41.1804 79.635C41.1804 79.635 41.1804 79.635 41.1785 79.635C40.9254 79.5132 40.6535 79.4513 40.3723 79.4513C39.654 79.4513 38.9902 79.8694 38.681 80.5182C38.4635 80.97 38.4373 81.4782 38.6041 81.9507C38.7691 82.4232 39.1104 82.8019 39.5604 83.0175C39.5623 83.0175 39.5623 83.0194 39.5623 83.0194C39.8173 83.1413 40.0893 83.2032 40.3706 83.2032C41.0887 83.2032 41.7543 82.785 42.0637 82.1363C42.5098 81.2044 42.1141 80.0813 41.1804 79.635Z" fill="#3DC75A"/>
</svg>
