<svg width="158" height="96" viewBox="0 0 158 96" fill="none" xmlns="http://www.w3.org/2000/svg">
<path d="M114.614 60.7824C116.28 60.6528 117.798 59.8032 118.784 58.448L133.764 37.7376C134.224 37.1024 134.155 36.2256 133.598 35.6688C133.041 35.1136 132.164 35.0448 131.529 35.5024L110.816 50.488C109.465 51.4704 108.616 52.9888 108.486 54.6544C108.356 56.32 108.96 57.9504 110.139 59.1296C111.212 60.2048 112.66 60.8 114.166 60.8C114.315 60.8 114.464 60.7936 114.614 60.7824ZM111.676 54.904C111.732 54.1728 112.107 53.5056 112.696 53.0768L125.331 43.936L116.193 56.568C115.761 57.1616 115.094 57.5344 114.363 57.592C113.635 57.64 112.92 57.3872 112.4 56.8672C111.884 56.3504 111.619 55.6336 111.676 54.904Z" fill="#3DC75A"/>
<path d="M150.454 31.3024C150.438 31.2688 150.438 31.2336 150.42 31.2C150.401 31.168 150.371 31.1504 150.35 31.12C148.732 28.3456 146.819 25.7648 144.646 23.4256L148.083 19.9904L150.345 22.2528L157.132 15.464L150.345 8.6768L143.556 15.464L145.82 17.728L142.384 21.1632C140.044 18.9904 137.465 17.0752 134.689 15.4576C134.659 15.4368 134.641 15.4064 134.609 15.3872C134.576 15.368 134.54 15.3696 134.507 15.352C129.558 12.5008 123.998 10.6016 118.07 9.9056V8H120.47C122.676 8 124.47 6.2064 124.47 4C124.47 1.7936 122.675 0 120.468 0H106.068C103.862 0 102.068 1.7936 102.068 4C102.068 6.2064 103.862 8 106.068 8H108.468V9.8496C106.74 10.0336 105.016 10.3152 103.31 10.7056C102.449 10.9024 101.91 11.7616 102.108 12.6224C102.305 13.4832 103.164 14.024 104.025 13.824C105.497 13.4864 106.984 13.232 108.473 13.0608L110.19 12.928C110.715 12.888 111.198 12.8592 111.668 12.8368V16C111.668 16.8848 112.384 17.6 113.268 17.6C114.153 17.6 114.868 16.8848 114.868 16V12.848C120.886 13.1248 126.556 14.7408 131.598 17.4L130.02 20.1312C129.579 20.8976 129.841 21.8752 130.606 22.3168C130.857 22.4624 131.132 22.5312 131.404 22.5312C131.958 22.5312 132.496 22.2448 132.792 21.7312L134.364 19.0064C139.371 22.1824 143.624 26.4352 146.8 31.4416L144.075 33.0144C143.312 33.456 143.049 34.4336 143.492 35.2C143.79 35.7136 144.326 36 144.88 36C145.152 36 145.427 35.9312 145.678 35.7856L148.409 34.208C151.105 39.3216 152.726 45.0848 152.968 51.1984H149.808C148.923 51.1984 148.208 51.9136 148.208 52.7984C148.208 53.6832 148.923 54.3984 149.808 54.3984H152.968C152.726 60.512 151.105 66.2752 148.409 71.3888L145.678 69.8112C144.913 69.3696 143.934 69.6288 143.492 70.3968C143.051 71.1632 143.313 72.1408 144.078 72.5824L146.803 74.1552C143.627 79.1616 139.374 83.4144 134.368 86.5904L132.795 83.8656C132.352 83.0976 131.371 82.8368 130.609 83.28C129.843 83.7216 129.58 84.7008 130.024 85.4656L131.601 88.1968C126.56 90.856 120.889 92.472 114.872 92.7488V89.6C114.872 88.7152 114.156 88 113.272 88C112.387 88 111.672 88.7152 111.672 89.6V92.7616C109.116 92.6736 106.553 92.3536 104.03 91.7744C103.169 91.568 102.31 92.1152 102.113 92.976C101.915 93.8368 102.454 94.696 103.315 94.8928C106.508 95.6288 109.771 96 113.008 96C113.086 96 113.161 95.9952 113.24 95.9936C113.251 95.9936 113.259 96 113.268 96C113.281 96 113.292 95.992 113.305 95.992C120.996 95.9392 128.212 93.8624 134.456 90.2752C134.505 90.2528 134.558 90.2416 134.606 90.2128C134.638 90.1936 134.656 90.1632 134.686 90.1424C141.148 86.376 146.548 80.9824 150.323 74.5248C150.353 74.4816 150.392 74.448 150.419 74.4C150.438 74.3664 150.436 74.3312 150.452 74.2976C154.107 67.9616 156.208 60.624 156.208 52.8C156.208 44.976 154.107 37.6384 150.454 31.3024ZM150.344 13.2016L152.606 15.464L150.344 17.728L148.08 15.464L150.344 13.2016ZM111.668 9.6336V4.8H106.068C105.628 4.8 105.268 4.44 105.268 4C105.268 3.56 105.628 3.2 106.068 3.2H120.468C120.908 3.2 121.268 3.56 121.268 4C121.268 4.44 120.908 4.8 120.468 4.8H114.868V9.6336C114.312 9.6112 113.78 9.6 113.268 9.6C113.224 9.6 113.172 9.6032 113.128 9.6032C113.088 9.6032 113.048 9.6 113.008 9.6C112.745 9.6 112.483 9.6176 112.22 9.6224C112.035 9.6272 111.86 9.6256 111.668 9.6336Z" fill="#132E71"/>
<path d="M83.4785 79.43V82.41H81.6685V81H77.1885V82.41H75.3685V79.43H75.6185C76.0318 79.4233 76.3218 79.14 76.4885 78.58C76.6618 78.02 76.7685 77.2133 76.8085 76.16L76.8885 74H82.5285V79.43H83.4785ZM78.5385 76.33C78.5118 77.0767 78.4518 77.71 78.3585 78.23C78.2652 78.75 78.1218 79.15 77.9285 79.43H80.5785V75.57H78.5685L78.5385 76.33ZM91.0853 74V81H89.1053V78.27H86.4053V81H84.4253V74H86.4053V76.63H89.1053V74H91.0853ZM98.2094 79.47V81H92.5894V74H98.0794V75.53H94.5494V76.71H97.6594V78.19H94.5494V79.47H98.2094ZM99.3374 74H101.287V78.11L104.177 74H106.037V81H104.087V76.9L101.207 81H99.3374V74ZM102.677 73.58C101.971 73.58 101.451 73.4433 101.117 73.17C100.791 72.8967 100.627 72.49 100.627 71.95H101.957C101.964 72.1833 102.024 72.3567 102.137 72.47C102.251 72.5833 102.431 72.64 102.677 72.64C102.924 72.64 103.107 72.5833 103.227 72.47C103.347 72.3567 103.411 72.1833 103.417 71.95H104.747C104.747 72.49 104.581 72.8967 104.247 73.17C103.914 73.4433 103.391 73.58 102.677 73.58Z" fill="#132E71"/>
<path d="M64.9784 50.04C67.1824 50.496 68.8671 51.408 70.0324 52.776C71.2231 54.1187 71.8184 55.7527 71.8184 57.678C71.8184 59.2487 71.3878 60.7053 70.5264 62.048C69.6904 63.3907 68.3984 64.48 66.6504 65.316C64.9278 66.1267 62.7871 66.532 60.2284 66.532C58.3538 66.532 56.4918 66.304 54.6424 65.848C52.8184 65.392 51.2351 64.746 49.8924 63.91L52.6284 58.248C53.6671 58.9573 54.8324 59.502 56.1244 59.882C57.4418 60.262 58.7338 60.452 60.0004 60.452C61.2924 60.452 62.3184 60.2113 63.0784 59.73C63.8384 59.2487 64.2184 58.5647 64.2184 57.678C64.2184 55.9553 62.8631 55.094 60.1524 55.094H56.9984V50.344L61.7484 45.214H51.2604V39.4H70.4884V44.112L64.9784 50.04ZM85.9749 66.532C83.6949 66.532 81.6683 65.9873 79.8949 64.898C78.1216 63.8087 76.7283 62.2253 75.7149 60.148C74.7269 58.0453 74.2329 55.5627 74.2329 52.7C74.2329 49.8373 74.7269 47.3673 75.7149 45.29C76.7283 43.1873 78.1216 41.5913 79.8949 40.502C81.6683 39.4127 83.6949 38.868 85.9749 38.868C88.2296 38.868 90.2436 39.4127 92.0169 40.502C93.7903 41.5913 95.1709 43.1873 96.1589 45.29C97.1723 47.3673 97.6789 49.8373 97.6789 52.7C97.6789 55.5627 97.1723 58.0453 96.1589 60.148C95.1709 62.2253 93.7903 63.8087 92.0169 64.898C90.2436 65.9873 88.2296 66.532 85.9749 66.532ZM85.9749 60.376C87.2416 60.376 88.2423 59.768 88.9769 58.552C89.7369 57.3107 90.1169 55.36 90.1169 52.7C90.1169 50.04 89.7369 48.102 88.9769 46.886C88.2423 45.6447 87.2416 45.024 85.9749 45.024C84.6829 45.024 83.6569 45.6447 82.8969 46.886C82.1623 48.102 81.7949 50.04 81.7949 52.7C81.7949 55.36 82.1623 57.3107 82.8969 58.552C83.6569 59.768 84.6829 60.376 85.9749 60.376Z" fill="#132E71"/>
<path d="M77.4397 16H62.2969C60.6221 16 59.2683 16.7152 59.2683 17.6C59.2683 18.4848 60.6221 19.2 62.2969 19.2H77.4397C79.1145 19.2 80.4683 18.4848 80.4683 17.6C80.4683 16.7152 79.1145 16 77.4397 16Z" fill="#3DC75A"/>
<path d="M72.035 27.6001H47.7016C46.356 27.6001 45.2683 28.3153 45.2683 29.2001C45.2683 30.0849 46.356 30.8001 47.7016 30.8001H72.035C73.3806 30.8001 74.4683 30.0849 74.4683 29.2001C74.4683 28.3153 73.3806 27.6001 72.035 27.6001Z" fill="#3DC75A"/>
<path d="M40.8683 39.7998H16.8683C15.9835 39.7998 15.2683 40.515 15.2683 41.3998C15.2683 42.2846 15.9835 42.9998 16.8683 42.9998H40.8683C41.7531 42.9998 42.4683 42.2846 42.4683 41.3998C42.4683 40.515 41.7531 39.7998 40.8683 39.7998Z" fill="#3DC75A"/>
<path d="M31.9995 51H1.59951C0.714712 51 -0.000488281 51.7152 -0.000488281 52.6C-0.000488281 53.4848 0.714712 54.2 1.59951 54.2H31.9995C32.8843 54.2 33.5995 53.4848 33.5995 52.6C33.5995 51.7152 32.8843 51 31.9995 51Z" fill="#3DC75A"/>
<path d="M40.8683 62.2002H20.0683C19.1835 62.2002 18.4683 62.9154 18.4683 63.8002C18.4683 64.685 19.1835 65.4002 20.0683 65.4002H40.8683C41.7531 65.4002 42.4683 64.685 42.4683 63.8002C42.4683 62.9154 41.7531 62.2002 40.8683 62.2002Z" fill="#3DC75A"/>
<path d="M67.7572 75.3999H48.7795C47.2802 75.3999 46.0684 76.1151 46.0684 76.9999C46.0684 77.8847 47.2802 78.5999 48.7795 78.5999H67.7572C69.2565 78.5999 70.4684 77.8847 70.4684 76.9999C70.4684 76.1151 69.2565 75.3999 67.7572 75.3999Z" fill="#3DC75A"/>
</svg>
