<svg width="199" height="31" viewBox="0 0 199 31" fill="none" xmlns="http://www.w3.org/2000/svg">
<path d="M11.567 23.192C9.839 23.192 8.271 22.872 6.863 22.232C5.455 21.5707 4.239 20.696 3.215 19.608C2.21233 18.4987 1.43367 17.2613 0.879 15.896C0.345667 14.5093 0.0790001 13.08 0.0790001 11.608C0.0790001 10.0933 0.367 8.65333 0.943 7.288C1.519 5.92267 2.319 4.70667 3.343 3.64C4.38833 2.552 5.615 1.69867 7.023 1.08C8.45233 0.461332 10.0097 0.151999 11.695 0.151999C13.423 0.151999 14.991 0.482665 16.399 1.144C17.807 1.784 19.0123 2.65867 20.015 3.768C21.0177 4.87733 21.7857 6.12533 22.319 7.512C22.8737 8.87733 23.151 10.2853 23.151 11.736C23.151 13.2293 22.863 14.6587 22.287 16.024C21.7323 17.3893 20.9323 18.616 19.887 19.704C18.863 20.7707 17.647 21.624 16.239 22.264C14.831 22.8827 13.2737 23.192 11.567 23.192ZM6.415 11.672C6.415 12.6747 6.59633 13.6347 6.959 14.552C7.343 15.4693 7.919 16.216 8.687 16.792C9.47633 17.368 10.4577 17.656 11.631 17.656C12.847 17.656 13.8283 17.3573 14.575 16.76C15.343 16.1627 15.9083 15.4053 16.271 14.488C16.6337 13.5493 16.815 12.5893 16.815 11.608C16.815 10.584 16.623 9.624 16.239 8.728C15.855 7.832 15.279 7.10667 14.511 6.552C13.743 5.976 12.7723 5.688 11.599 5.688C10.4043 5.688 9.423 5.98667 8.655 6.584C7.887 7.16 7.32167 7.90667 6.959 8.824C6.59633 9.72 6.415 10.6693 6.415 11.672ZM32.6313 23V6.168H38.7113V11.896H43.1913V6.168H49.2713V23H43.1913V16.856H38.7113V23H32.6313ZM51.483 17.912C51.483 16.7813 51.7923 15.7893 52.411 14.936C53.0297 14.0613 53.883 13.3787 54.971 12.888C56.0803 12.3973 57.339 12.152 58.747 12.152C60.1123 12.152 61.243 12.3653 62.139 12.792V12.28C62.139 11.4907 61.9043 10.904 61.435 10.52C60.987 10.136 60.251 9.944 59.227 9.944C58.2883 9.944 57.403 10.104 56.571 10.424C55.7603 10.7227 54.907 11.1707 54.011 11.768L52.251 7.992C54.4697 6.56267 56.9977 5.848 59.835 5.848C62.5017 5.848 64.5603 6.456 66.011 7.672C67.483 8.86667 68.219 10.648 68.219 13.016V16.28C68.219 16.856 68.3043 17.2613 68.475 17.496C68.6457 17.7093 68.9443 17.8373 69.371 17.88V23C68.8803 23.1067 68.411 23.1813 67.963 23.224C67.5363 23.288 67.1523 23.32 66.811 23.32C65.723 23.32 64.891 23.128 64.315 22.744C63.7603 22.3387 63.3977 21.752 63.227 20.984L63.099 20.376C61.563 22.3387 59.6537 23.32 57.371 23.32C56.2617 23.32 55.259 23.0853 54.363 22.616C53.467 22.1467 52.763 21.5067 52.251 20.696C51.739 19.864 51.483 18.936 51.483 17.912ZM61.339 18.328C61.8723 17.9653 62.139 17.5707 62.139 17.144V15.896C61.7977 15.768 61.403 15.6613 60.955 15.576C60.5283 15.4907 60.1443 15.448 59.803 15.448C59.0777 15.448 58.459 15.6293 57.947 15.992C57.4563 16.3547 57.211 16.8133 57.211 17.368C57.211 17.8373 57.3923 18.2213 57.755 18.52C58.139 18.8187 58.619 18.968 59.195 18.968C59.9843 18.968 60.699 18.7547 61.339 18.328ZM79.8873 23.32C77.9033 23.32 76.2179 22.9147 74.8313 22.104C73.4659 21.272 72.4206 20.1947 71.6953 18.872C70.9913 17.5493 70.6393 16.12 70.6393 14.584C70.6393 13.048 70.9913 11.6187 71.6953 10.296C72.4206 8.952 73.4659 7.87467 74.8313 7.064C76.2179 6.25333 77.9033 5.848 79.8873 5.848C81.9139 5.848 83.6206 6.27467 85.0073 7.128C86.3939 7.98133 87.4286 9.08 88.1112 10.424L82.1913 12.216C81.6153 11.384 80.8366 10.968 79.8553 10.968C79.0233 10.968 78.3193 11.288 77.7433 11.928C77.1673 12.568 76.8793 13.4533 76.8793 14.584C76.8793 15.7147 77.1673 16.6 77.7433 17.24C78.3193 17.88 79.0233 18.2 79.8553 18.2C80.8366 18.2 81.6153 17.784 82.1913 16.952L88.1112 18.744C87.4286 20.088 86.3939 21.1867 85.0073 22.04C83.6206 22.8933 81.9139 23.32 79.8873 23.32ZM97.2875 23V6.168H113.767V23H107.688V11.448H103.368V23H97.2875ZM116.975 23V6.168H123.055V14.904L128.367 6.168H133.903V23H127.823V14.552L122.543 23H116.975ZM137.1 23V6.168H143.18V17.72H147.02V6.168H153.1V17.72H156.908V6.168H162.988V23H137.1ZM168.982 30.488C168.448 30.488 167.894 30.4347 167.318 30.328C166.742 30.2427 166.038 30.0933 165.206 29.88L165.846 24.696C166.827 25.0587 167.659 25.24 168.342 25.24C168.896 25.24 169.355 25.1013 169.718 24.824C170.08 24.5467 170.304 24.1413 170.39 23.608L170.486 23L164.373 6.168H170.614L173.814 16.76L176.406 6.168H182.069L176.374 25.016C176.054 26.104 175.531 27.0533 174.806 27.864C174.08 28.696 173.216 29.336 172.214 29.784C171.211 30.2533 170.134 30.488 168.982 30.488ZM187.404 23V11.448H182.604V6.168H198.284V11.448H193.484V23H187.404Z" fill="#626C77" fill-opacity="0.48"/>
</svg>
