<svg width="117" height="30" viewBox="0 0 117 30" fill="none" xmlns="http://www.w3.org/2000/svg">
<path fill-rule="evenodd" clip-rule="evenodd" d="M96.4363 25.8288V29.2856H82.0481V2.55078C86.8288 2.56364 91.6248 2.57268 96.4363 2.57792V6.02834C92.8951 6.02215 89.3541 6.01191 85.8134 5.99763C85.881 8.25076 85.9486 10.5039 86.0162 12.757L96.298 12.7942C96.298 14.0798 96.298 15.3654 96.3207 16.6396C92.8698 16.6519 89.4189 16.6622 85.9679 16.6703V25.5981C89.4453 25.6745 92.9411 25.7545 96.4363 25.8288ZM70.4779 6.42211C70.4325 10.2246 70.3645 14.0207 70.3425 17.8168C70.3205 21.6129 70.2716 25.4098 70.2524 29.2059C69.0342 29.2123 67.816 29.2123 66.6212 29.2123C66.5985 24.7677 66.5985 20.3231 66.5985 15.8792V2.54531L79.567 2.39746C79.5897 3.68735 79.6379 4.96867 79.6798 6.25427L70.3418 6.03286C70.389 6.16237 70.4344 6.29212 70.4779 6.42211ZM53.3597 18.2719C53.3377 21.9016 53.3377 25.5256 53.3377 29.146L49.6611 29.2017V2.63042C51.8033 2.63042 53.9461 2.624 56.1138 2.61828C57.3672 2.57095 58.6154 2.80516 59.7678 3.30394C65.3611 5.63731 65.9475 13.8409 60.6896 16.9763C58.3893 18.3405 56.2918 18.2719 53.3597 18.2719ZM53.3597 6.02517V14.8158C56.267 14.8158 60.5541 15.0565 60.5768 10.4026C60.5768 5.76019 56.2691 6.03159 53.3597 6.02517ZM36.1287 29.7113C27.8969 30.7827 21.6044 25.2796 20.589 17.9981C20.0728 14.1421 21.0857 10.2365 23.4084 7.12757C25.5829 4.35458 28.7648 2.56851 32.25 2.16442C36.0499 1.6097 39.9087 2.65684 42.9176 5.05917C44.2189 6.08522 45.3005 7.36609 46.0971 8.82456C48.3388 12.8807 48.5315 17.7689 46.6162 21.9913C44.7053 26.2382 40.7263 29.1672 36.1287 29.7113ZM43.9777 14.6931C43.4104 9.06359 39.2183 4.91538 33.0165 5.56389C27.5133 6.14384 23.8147 10.9156 24.4011 17.1629C24.9421 22.7981 29.2052 27.0328 35.475 26.2864C40.9101 25.6314 44.6088 20.9897 43.9777 14.6931ZM5.99749 29.2427C3.31661 28.28 1.14746 26.2481 0 23.6246C1.05938 23.0504 2.11924 22.4743 3.17956 21.8962C3.52421 22.5967 3.93149 23.2642 4.39636 23.8903C5.29893 24.9277 6.48147 25.6783 7.8 26.0509C9.8755 26.6187 13.2132 26.3908 14.6342 24.6867C16.0999 22.9518 15.9198 19.5321 14.2733 18.2487C11.973 16.4338 9.94287 17.1623 6.92072 16.8724V13.4398C9.44721 13.2612 10.6647 13.7612 12.6495 12.3599C15.0398 10.6686 15.1079 4.69341 8.70267 5.56334C7.39264 5.70915 6.16911 6.29365 5.22813 7.22319C5.02533 7.43317 4.52825 7.9267 4.34885 8.07526C3.78158 7.42103 2.3634 6.43969 2.00247 5.71832C3.37882 4.26202 4.82182 2.81714 7.39156 2.25505C12.2176 1.21228 18.0137 3.32639 17.6734 9.34729C17.4926 12.687 15.5759 13.5019 14.1549 14.6254C16.2524 15.4711 16.1623 15.1625 17.7407 16.7174C20.1091 19.0693 20.4473 25.7787 15.3504 28.4306C12.4582 29.9232 9.10056 30.2147 5.99749 29.2427Z" fill="white"/>
<path fill-rule="evenodd" clip-rule="evenodd" d="M114.221 2.78592C112.523 0.988616 110.161 -0.0197952 107.698 0.000446642C105.247 -0.0245483 102.901 1.00055 101.245 2.8202C99.4823 4.61475 98.5128 7.04977 98.5563 9.5739C98.5092 11.9283 99.3769 14.2081 100.974 15.9276C102.418 17.6153 104.522 18.5834 106.733 18.5781C106.89 18.5781 107.092 18.5655 107.339 18.5403C107.585 18.5153 107.877 18.4781 108.235 18.4346C105.635 22.2914 103.043 26.1465 100.459 30H105.139C105.722 29.1479 106.327 28.2959 106.932 27.4374V27.4438C109.375 23.8103 111.833 20.1744 114.307 16.5362C116.104 13.9528 117 11.5409 117 9.31678C117.019 6.84468 116.012 4.47689 114.221 2.78592ZM111.443 13.1802C110.5 14.2008 109.174 14.7739 107.79 14.7587C106.389 14.7732 105.047 14.1933 104.092 13.161C103.091 12.1189 102.549 10.7138 102.59 9.26414C102.58 7.85445 103.129 6.49886 104.115 5.49876C105.071 4.4904 106.395 3.91992 107.779 3.91992C109.163 3.91992 110.487 4.4904 111.443 5.49876C112.439 6.52282 112.988 7.9055 112.966 9.33914C112.988 10.773 112.439 12.156 111.443 13.1802Z" fill="white" fill-opacity="0.8"/>
</svg>
