<svg width="308" height="16" viewBox="0 0 308 16" xmlns="http://www.w3.org/2000/svg">
<path fill-rule="evenodd" clip-rule="evenodd" d="M0 0L12.963 12.1528C15.271 14.3165 18.8624 14.3165 21.1703 12.1528L31.3976 2.56478C32.9362 1.12231 35.3305 1.12231 36.8691 2.56478L47.0963 12.1528C49.4043 14.3165 52.9957 14.3165 55.3036 12.1528L65.5309 2.56478C67.0695 1.12231 69.4638 1.12231 71.0024 2.56478L81.2297 12.1528C83.5376 14.3165 87.129 14.3165 89.437 12.1528L99.6642 2.56478C101.203 1.12231 103.597 1.12231 105.136 2.56478L115.363 12.1528C117.671 14.3165 121.262 14.3165 123.57 12.1528L136.533 0L0 0Z" fill="#017FF8"/>
<path fill-rule="evenodd" clip-rule="evenodd" d="M68 0L80.963 12.1528C83.271 14.3165 86.8624 14.3165 89.1703 12.1528L99.3976 2.56478C100.936 1.12231 103.33 1.12231 104.869 2.56478L115.096 12.1528C117.404 14.3165 120.996 14.3165 123.304 12.1528L133.531 2.56478C135.07 1.12231 137.464 1.12231 139.002 2.56478L149.23 12.1528C151.538 14.3165 155.129 14.3165 157.437 12.1528L167.664 2.56478C169.203 1.12231 171.597 1.12231 173.136 2.56478L183.363 12.1528C185.671 14.3165 189.262 14.3165 191.57 12.1528L204.533 0L68 0Z" fill="#017FF8"/>
<path fill-rule="evenodd" clip-rule="evenodd" d="M171 0L183.963 12.1528C186.271 14.3165 189.862 14.3165 192.17 12.1528L202.398 2.56478C203.936 1.12231 206.33 1.12231 207.869 2.56478L218.096 12.1528C220.404 14.3165 223.996 14.3165 226.304 12.1528L236.531 2.56478C238.07 1.12231 240.464 1.12231 242.002 2.56478L252.23 12.1528C254.538 14.3165 258.129 14.3165 260.437 12.1528L270.664 2.56478C272.203 1.12231 274.597 1.12231 276.136 2.56478L286.363 12.1528C288.671 14.3165 292.262 14.3165 294.57 12.1528L307.533 0L171 0Z" fill="#017FF8"/>
</svg>
