<svg width="178" height="40" viewBox="0 0 178 40" fill="none" xmlns="http://www.w3.org/2000/svg">
<path fill-rule="evenodd" clip-rule="evenodd" d="M59.2695 31.2975C62.2638 31.2975 64.5979 30.4859 66.2717 28.8627C67.9455 27.2395 68.7825 24.9632 68.7825 22.0339V11.259H62.3103V21.838C62.3103 23.2747 62.0546 24.3195 61.5431 24.9725C61.0317 25.6256 60.2924 25.9521 59.3253 25.9521C58.3582 25.9521 57.6189 25.6256 57.1075 24.9725C56.596 24.3195 56.3403 23.2747 56.3403 21.838V11.259H49.7566V22.0339C49.7566 24.9632 50.5935 27.2395 52.2673 28.8627C53.9412 30.4859 56.2752 31.2975 59.2695 31.2975ZM77.9048 36.2792V29.8142C78.7975 30.6912 80.0901 31.1296 81.7825 31.1296C83.1216 31.1296 84.3537 30.8078 85.4789 30.1641C86.6041 29.5204 87.4968 28.5968 88.157 27.3934C88.8173 26.19 89.1474 24.7953 89.1474 23.2094C89.1474 21.6235 88.8173 20.2241 88.157 19.0114C87.4968 17.7986 86.6041 16.8704 85.4789 16.2267C84.3537 15.583 83.1216 15.2612 81.7825 15.2612C79.9041 15.2612 78.5093 15.7742 77.5979 16.8004V15.541H71.6001V36.2792H77.9048ZM78.4907 25.4203C78.9556 25.9427 79.5508 26.2039 80.2761 26.2039C81.0014 26.2039 81.5966 25.9427 82.0615 25.4203C82.5265 24.8979 82.7589 24.1609 82.7589 23.2094C82.7589 22.2578 82.5265 21.5162 82.0615 20.9844C81.5966 20.4527 81.0014 20.1868 80.2761 20.1868C79.5508 20.1868 78.9556 20.4527 78.4907 20.9844C78.0257 21.5162 77.7932 22.2578 77.7932 23.2094C77.7932 24.1609 78.0257 24.8979 78.4907 25.4203ZM97.9072 30.8497V23.6292H103.989V30.8497H110.573V11.259H103.989V18.1998H97.9072V11.259H91.3235V30.8497H97.9072ZM126.209 30.1081C124.86 30.7891 123.331 31.1296 121.62 31.1296C119.927 31.1296 118.407 30.7891 117.059 30.1081C115.71 29.4271 114.655 28.4849 113.892 27.2814C113.13 26.078 112.748 24.7113 112.748 23.1814C112.748 21.6515 113.13 20.2848 113.892 19.0813C114.655 17.8779 115.71 16.9404 117.059 16.2687C118.407 15.597 119.927 15.2612 121.62 15.2612C123.331 15.2612 124.86 15.597 126.209 16.2687C127.557 16.9404 128.608 17.8779 129.361 19.0813C130.114 20.2848 130.491 21.6515 130.491 23.1814C130.491 24.7113 130.114 26.078 129.361 27.2814C128.608 28.4849 127.557 29.4271 126.209 30.1081ZM121.62 26.2039C120.894 26.2039 120.299 25.9381 119.834 25.4063C119.369 24.8746 119.137 24.1329 119.137 23.1814C119.137 22.2298 119.369 21.4928 119.834 20.9704C120.299 20.448 120.894 20.1868 121.62 20.1868C122.345 20.1868 122.94 20.448 123.405 20.9704C123.87 21.4928 124.103 22.2298 124.103 23.1814C124.103 24.1329 123.87 24.8746 123.405 25.4063C122.94 25.9381 122.345 26.2039 121.62 26.2039ZM138.777 23.3773V30.8498H132.472V15.541H138.47V16.9683C139.604 15.8302 141.045 15.2612 142.794 15.2612C143.817 15.2612 144.737 15.4524 145.556 15.8349C146.374 16.2174 147.043 16.8004 147.564 17.5841C148.178 16.8377 148.922 16.264 149.796 15.8629C150.67 15.4617 151.628 15.2612 152.669 15.2612C154.511 15.2612 155.984 15.8302 157.091 16.9683C158.198 18.1065 158.751 19.823 158.751 22.1179V30.8498H152.446V23.2094C152.446 21.4555 151.879 20.5786 150.744 20.5786C150.149 20.5786 149.67 20.8025 149.308 21.2503C148.945 21.6981 148.764 22.4071 148.764 23.3773V30.8498H142.459V23.2094C142.459 21.4555 141.892 20.5786 140.757 20.5786C140.162 20.5786 139.683 20.8025 139.321 21.2503C138.958 21.6981 138.777 22.4071 138.777 23.3773ZM170.189 31.1296C173.146 31.1296 175.368 30.3087 176.856 28.6668L173.564 25.3364C173.025 25.7468 172.527 26.036 172.072 26.204C171.616 26.3719 171.054 26.4558 170.384 26.4558C169.603 26.4558 168.952 26.3019 168.431 25.9941C167.91 25.6862 167.538 25.2431 167.315 24.6647H177.916C177.972 23.7691 178 23.2747 178 23.1814C178 21.5208 177.623 20.0935 176.87 18.8994C176.117 17.7053 175.103 16.8004 173.829 16.1847C172.555 15.569 171.146 15.2612 169.603 15.2612C167.966 15.2612 166.492 15.597 165.181 16.2687C163.87 16.9404 162.838 17.8779 162.085 19.0813C161.331 20.2848 160.955 21.6515 160.955 23.1814C160.955 24.6927 161.336 26.0547 162.099 27.2675C162.861 28.4802 163.94 29.4271 165.335 30.1081C166.729 30.7891 168.347 31.1296 170.189 31.1296ZM167.204 21.6141H172.114C171.984 20.9798 171.705 20.4807 171.277 20.1168C170.849 19.753 170.31 19.5711 169.659 19.5711C169.008 19.5711 168.468 19.7484 168.041 20.1029C167.613 20.4574 167.334 20.9611 167.204 21.6141Z" fill="#071427"/>
<path fill-rule="evenodd" clip-rule="evenodd" d="M4.89448 19.947L1.06272 20.029C0.488319 20.0413 0.0126324 19.5894 0.000242676 19.0197C-0.00610301 18.7282 0.112249 18.4476 0.326005 18.2474L19.8065 0L27.0996 7.35248H32.396V12.3485L39.0381 18.0574C39.4723 18.4306 39.5192 19.0823 39.143 19.5128C38.9503 19.7333 38.6726 19.8626 38.3785 19.8687L34.5805 19.947V32.5713C34.5805 36.674 31.2272 40 27.0905 40H12.3845C8.24786 40 4.89448 36.674 4.89448 32.5713V19.947Z" fill="url(#paint0_linear)"/>
<path fill-rule="evenodd" clip-rule="evenodd" d="M27.4424 40H12.7273C8.5907 40 5.23731 36.674 5.23731 32.5714V20L0.843375 20.0584C0.383791 20.0645 0.0062331 19.6999 7.46594e-05 19.244C-0.00304617 19.0128 0.0917958 18.7909 0.261506 18.6323L12.2165 7.4601L25.6463 18.5316C25.9998 18.823 26.0482 19.3434 25.7543 19.694C25.5945 19.8846 25.3568 19.9939 25.1069 19.9918L20.0453 19.947V33.3342C20.3921 35.3549 21.174 36.864 22.3913 37.8615C23.6084 38.859 25.2922 39.5718 27.4424 40Z" fill="#017FF8"/>
<defs>
<linearGradient id="paint0_linear" x1="-1.8786e-05" y1="0" x2="-1.8786e-05" y2="40" gradientUnits="userSpaceOnUse">
<stop stop-color="#61EB7A"/>
<stop offset="1" stop-color="#1DA53D"/>
</linearGradient>
</defs>
</svg>
